<svg width="213" height="110" viewBox="0 0 213 110" fill="none" xmlns="http://www.w3.org/2000/svg">
<g filter="url(#filter0_d_23_1069)">
<rect x="16" y="12" width="181" height="78" rx="10" fill="white"/>
</g>
<path d="M70.9432 38.1477H69.1705C69.1023 37.7689 68.9754 37.4356 68.7898 37.1477C68.6042 36.8598 68.3769 36.6155 68.108 36.4148C67.839 36.214 67.5379 36.0625 67.2045 35.9602C66.875 35.858 66.5246 35.8068 66.1534 35.8068C65.483 35.8068 64.8826 35.9754 64.3523 36.3125C63.8258 36.6496 63.4091 37.1439 63.1023 37.7955C62.7992 38.447 62.6477 39.2424 62.6477 40.1818C62.6477 41.1288 62.7992 41.928 63.1023 42.5795C63.4091 43.2311 63.8277 43.7235 64.358 44.0568C64.8883 44.3902 65.4848 44.5568 66.1477 44.5568C66.5152 44.5568 66.8636 44.5076 67.1932 44.4091C67.5265 44.3068 67.8277 44.1572 68.0966 43.9602C68.3655 43.7633 68.5928 43.5227 68.7784 43.2386C68.9678 42.9508 69.0985 42.6212 69.1705 42.25L70.9432 42.2557C70.8485 42.8277 70.6648 43.3542 70.392 43.8352C70.1231 44.3125 69.7765 44.7254 69.3523 45.0739C68.9318 45.4186 68.4508 45.6856 67.9091 45.875C67.3674 46.0644 66.7765 46.1591 66.1364 46.1591C65.1288 46.1591 64.2311 45.9205 63.4432 45.4432C62.6553 44.9621 62.0341 44.2746 61.5795 43.3807C61.1288 42.4867 60.9034 41.4205 60.9034 40.1818C60.9034 38.9394 61.1307 37.8731 61.5852 36.983C62.0398 36.089 62.661 35.4034 63.4489 34.9261C64.2367 34.4451 65.1326 34.2045 66.1364 34.2045C66.7538 34.2045 67.3295 34.2936 67.8636 34.4716C68.4015 34.6458 68.8845 34.9034 69.3125 35.2443C69.7405 35.5814 70.0947 35.9943 70.375 36.483C70.6553 36.9678 70.8447 37.5227 70.9432 38.1477ZM76.5838 46.1761C75.7656 46.1761 75.0516 45.9886 74.4418 45.6136C73.8319 45.2386 73.3584 44.714 73.0213 44.0398C72.6842 43.3655 72.5156 42.5777 72.5156 41.6761C72.5156 40.7708 72.6842 39.9792 73.0213 39.3011C73.3584 38.6231 73.8319 38.0966 74.4418 37.7216C75.0516 37.3466 75.7656 37.1591 76.5838 37.1591C77.402 37.1591 78.116 37.3466 78.7259 37.7216C79.3357 38.0966 79.8092 38.6231 80.1463 39.3011C80.4834 39.9792 80.652 40.7708 80.652 41.6761C80.652 42.5777 80.4834 43.3655 80.1463 44.0398C79.8092 44.714 79.3357 45.2386 78.7259 45.6136C78.116 45.9886 77.402 46.1761 76.5838 46.1761ZM76.5895 44.75C77.1198 44.75 77.5592 44.6098 77.9077 44.3295C78.2562 44.0492 78.5137 43.6761 78.6804 43.2102C78.8509 42.7443 78.9361 42.2311 78.9361 41.6705C78.9361 41.1136 78.8509 40.6023 78.6804 40.1364C78.5137 39.6667 78.2562 39.2898 77.9077 39.0057C77.5592 38.7216 77.1198 38.5795 76.5895 38.5795C76.0554 38.5795 75.6122 38.7216 75.2599 39.0057C74.9115 39.2898 74.652 39.6667 74.4815 40.1364C74.3149 40.6023 74.2315 41.1136 74.2315 41.6705C74.2315 42.2311 74.3149 42.7443 74.4815 43.2102C74.652 43.6761 74.9115 44.0492 75.2599 44.3295C75.6122 44.6098 76.0554 44.75 76.5895 44.75ZM82.5483 46V37.2727H84.179V38.6932H84.2869C84.4688 38.2121 84.7661 37.8371 85.179 37.5682C85.5919 37.2955 86.0862 37.1591 86.6619 37.1591C87.2453 37.1591 87.7339 37.2955 88.1278 37.5682C88.5256 37.8409 88.8191 38.2159 89.0085 38.6932H89.0994C89.3078 38.2273 89.6392 37.8561 90.0938 37.5795C90.5483 37.2992 91.09 37.1591 91.7188 37.1591C92.5104 37.1591 93.1562 37.4072 93.6562 37.9034C94.16 38.3996 94.4119 39.1477 94.4119 40.1477V46H92.7131V40.3068C92.7131 39.7159 92.5521 39.2879 92.2301 39.0227C91.9081 38.7576 91.5237 38.625 91.0767 38.625C90.5237 38.625 90.0938 38.7955 89.7869 39.1364C89.4801 39.4735 89.3267 39.9072 89.3267 40.4375V46H87.6335V40.1989C87.6335 39.7254 87.4858 39.3447 87.1903 39.0568C86.8949 38.7689 86.5104 38.625 86.0369 38.625C85.715 38.625 85.4176 38.7102 85.1449 38.8807C84.8759 39.0473 84.6581 39.2803 84.4915 39.5795C84.3286 39.8788 84.2472 40.2254 84.2472 40.6193V46H82.5483ZM96.6889 49.2727V37.2727H98.348V38.6875H98.4901C98.5885 38.5057 98.7306 38.2955 98.9162 38.0568C99.1018 37.8182 99.3594 37.6098 99.6889 37.4318C100.018 37.25 100.454 37.1591 100.996 37.1591C101.7 37.1591 102.329 37.3371 102.882 37.6932C103.435 38.0492 103.869 38.5625 104.183 39.233C104.501 39.9034 104.661 40.7102 104.661 41.6534C104.661 42.5966 104.503 43.4053 104.189 44.0795C103.875 44.75 103.443 45.267 102.893 45.6307C102.344 45.9905 101.717 46.1705 101.013 46.1705C100.482 46.1705 100.049 46.0814 99.7116 45.9034C99.3783 45.7254 99.117 45.517 98.9276 45.2784C98.7382 45.0398 98.5923 44.8277 98.4901 44.642H98.3878V49.2727H96.6889ZM98.3537 41.6364C98.3537 42.25 98.4427 42.7879 98.6207 43.25C98.7988 43.7121 99.0563 44.0739 99.3935 44.3352C99.7306 44.5928 100.143 44.7216 100.632 44.7216C101.14 44.7216 101.564 44.5871 101.905 44.3182C102.246 44.0455 102.503 43.6761 102.678 43.2102C102.856 42.7443 102.945 42.2197 102.945 41.6364C102.945 41.0606 102.857 40.5436 102.683 40.0852C102.513 39.6269 102.255 39.2652 101.911 39C101.57 38.7348 101.143 38.6023 100.632 38.6023C100.14 38.6023 99.723 38.7292 99.3821 38.983C99.045 39.2367 98.7893 39.5909 98.6151 40.0455C98.4408 40.5 98.3537 41.0303 98.3537 41.6364ZM108.263 34.3636V46H106.564V34.3636H108.263ZM114.31 46.1761C113.45 46.1761 112.709 45.9924 112.088 45.625C111.471 45.2538 110.993 44.733 110.656 44.0625C110.323 43.3883 110.156 42.5985 110.156 41.6932C110.156 40.7992 110.323 40.0114 110.656 39.3295C110.993 38.6477 111.463 38.1155 112.065 37.733C112.671 37.3504 113.38 37.1591 114.19 37.1591C114.683 37.1591 115.16 37.2405 115.622 37.4034C116.084 37.5663 116.499 37.822 116.866 38.1705C117.234 38.5189 117.524 38.9716 117.736 39.5284C117.948 40.0814 118.054 40.7538 118.054 41.5455V42.1477H111.116V40.875H116.389C116.389 40.428 116.298 40.0322 116.116 39.6875C115.935 39.339 115.679 39.0644 115.349 38.8636C115.024 38.6629 114.641 38.5625 114.202 38.5625C113.724 38.5625 113.308 38.6799 112.952 38.9148C112.599 39.1458 112.327 39.4489 112.134 39.8239C111.944 40.1951 111.849 40.5985 111.849 41.0341V42.0284C111.849 42.6117 111.952 43.108 112.156 43.517C112.365 43.9261 112.654 44.2386 113.026 44.4545C113.397 44.6667 113.83 44.7727 114.327 44.7727C114.649 44.7727 114.942 44.7273 115.207 44.6364C115.473 44.5417 115.702 44.4015 115.895 44.2159C116.088 44.0303 116.236 43.8011 116.338 43.5284L117.946 43.8182C117.817 44.2917 117.586 44.7064 117.253 45.0625C116.923 45.4148 116.509 45.6894 116.009 45.8864C115.512 46.0795 114.946 46.1761 114.31 46.1761ZM124.013 37.2727V38.6364H119.246V37.2727H124.013ZM120.524 35.1818H122.223V43.4375C122.223 43.767 122.272 44.0152 122.371 44.1818C122.469 44.3447 122.596 44.4564 122.751 44.517C122.911 44.5739 123.083 44.6023 123.268 44.6023C123.405 44.6023 123.524 44.5928 123.626 44.5739C123.729 44.5549 123.808 44.5398 123.865 44.5284L124.172 45.9318C124.073 45.9697 123.933 46.0076 123.751 46.0455C123.57 46.0871 123.342 46.1098 123.07 46.1136C122.623 46.1212 122.206 46.0417 121.82 45.875C121.433 45.7083 121.121 45.4508 120.882 45.1023C120.643 44.7538 120.524 44.3163 120.524 43.7898V35.1818ZM129.56 46.1761C128.7 46.1761 127.959 45.9924 127.338 45.625C126.721 45.2538 126.243 44.733 125.906 44.0625C125.573 43.3883 125.406 42.5985 125.406 41.6932C125.406 40.7992 125.573 40.0114 125.906 39.3295C126.243 38.6477 126.713 38.1155 127.315 37.733C127.921 37.3504 128.63 37.1591 129.44 37.1591C129.933 37.1591 130.41 37.2405 130.872 37.4034C131.334 37.5663 131.749 37.822 132.116 38.1705C132.484 38.5189 132.774 38.9716 132.986 39.5284C133.198 40.0814 133.304 40.7538 133.304 41.5455V42.1477H126.366V40.875H131.639C131.639 40.428 131.548 40.0322 131.366 39.6875C131.185 39.339 130.929 39.0644 130.599 38.8636C130.274 38.6629 129.891 38.5625 129.452 38.5625C128.974 38.5625 128.558 38.6799 128.202 38.9148C127.849 39.1458 127.577 39.4489 127.384 39.8239C127.194 40.1951 127.099 40.5985 127.099 41.0341V42.0284C127.099 42.6117 127.202 43.108 127.406 43.517C127.615 43.9261 127.904 44.2386 128.276 44.4545C128.647 44.6667 129.08 44.7727 129.577 44.7727C129.899 44.7727 130.192 44.7273 130.457 44.6364C130.723 44.5417 130.952 44.4015 131.145 44.2159C131.338 44.0303 131.486 43.8011 131.588 43.5284L133.196 43.8182C133.067 44.2917 132.836 44.7064 132.503 45.0625C132.173 45.4148 131.759 45.6894 131.259 45.8864C130.762 46.0795 130.196 46.1761 129.56 46.1761ZM139.423 46V37.2727H141.122V46H139.423ZM140.281 35.9261C139.986 35.9261 139.732 35.8277 139.52 35.6307C139.312 35.4299 139.207 35.1913 139.207 34.9148C139.207 34.6345 139.312 34.3958 139.52 34.1989C139.732 33.9981 139.986 33.8977 140.281 33.8977C140.577 33.8977 140.829 33.9981 141.037 34.1989C141.249 34.3958 141.355 34.6345 141.355 34.9148C141.355 35.1913 141.249 35.4299 141.037 35.6307C140.829 35.8277 140.577 35.9261 140.281 35.9261ZM145.107 40.8182V46H143.408V37.2727H145.038V38.6932H145.146C145.347 38.2311 145.661 37.8598 146.089 37.5795C146.521 37.2992 147.065 37.1591 147.72 37.1591C148.315 37.1591 148.836 37.2841 149.283 37.5341C149.73 37.7803 150.076 38.1477 150.322 38.6364C150.569 39.125 150.692 39.7292 150.692 40.4489V46H148.993V40.6534C148.993 40.0208 148.828 39.5265 148.499 39.1705C148.169 38.8106 147.716 38.6307 147.141 38.6307C146.747 38.6307 146.396 38.7159 146.089 38.8864C145.786 39.0568 145.546 39.3068 145.368 39.6364C145.194 39.9621 145.107 40.3561 145.107 40.8182ZM61.142 56.2727H62.8409V65.5682C62.8409 66.1515 62.7348 66.6439 62.5227 67.0455C62.3144 67.447 62.0038 67.7519 61.5909 67.9602C61.1818 68.1686 60.6761 68.2727 60.0739 68.2727C60.0133 68.2727 59.9564 68.2727 59.9034 68.2727C59.8466 68.2727 59.7879 68.2708 59.7273 68.267V66.8068C59.7803 66.8068 59.8277 66.8068 59.8693 66.8068C59.9072 66.8068 59.9508 66.8068 60 66.8068C60.4015 66.8068 60.6913 66.6989 60.8693 66.483C61.0511 66.2708 61.142 65.9621 61.142 65.5568V56.2727ZM61.983 54.9261C61.6875 54.9261 61.4337 54.8277 61.2216 54.6307C61.0133 54.4299 60.9091 54.1913 60.9091 53.9148C60.9091 53.6345 61.0133 53.3958 61.2216 53.1989C61.4337 52.9981 61.6875 52.8977 61.983 52.8977C62.2784 52.8977 62.5303 52.9981 62.7386 53.1989C62.9508 53.3958 63.0568 53.6345 63.0568 53.9148C63.0568 54.1913 62.9508 54.4299 62.7386 54.6307C62.5303 54.8277 62.2784 54.9261 61.983 54.9261ZM70.6548 61.3807V56.2727H72.3594V65H70.6889V63.4886H70.598C70.3973 63.9545 70.0753 64.3428 69.6321 64.6534C69.1927 64.9602 68.6454 65.1136 67.9901 65.1136C67.4295 65.1136 66.9332 64.9905 66.5014 64.7443C66.0734 64.4943 65.7363 64.125 65.4901 63.6364C65.2476 63.1477 65.1264 62.5436 65.1264 61.8239V56.2727H66.8253V61.6193C66.8253 62.214 66.9901 62.6875 67.3196 63.0398C67.6491 63.392 68.0772 63.5682 68.6037 63.5682C68.9219 63.5682 69.2382 63.4886 69.5526 63.3295C69.8707 63.1705 70.134 62.9299 70.3423 62.608C70.5545 62.286 70.6586 61.8769 70.6548 61.3807ZM81.1818 58.4034L79.642 58.6761C79.5777 58.4792 79.4754 58.2917 79.3352 58.1136C79.1989 57.9356 79.0133 57.7898 78.7784 57.6761C78.5436 57.5625 78.25 57.5057 77.8977 57.5057C77.4167 57.5057 77.0152 57.6136 76.6932 57.8295C76.3712 58.0417 76.2102 58.3163 76.2102 58.6534C76.2102 58.9451 76.3182 59.1799 76.5341 59.358C76.75 59.536 77.0985 59.6818 77.5795 59.7955L78.9659 60.1136C79.7689 60.2992 80.3674 60.5852 80.7614 60.9716C81.1553 61.358 81.3523 61.8598 81.3523 62.4773C81.3523 63 81.2008 63.4659 80.8977 63.875C80.5985 64.2803 80.1799 64.5985 79.642 64.8295C79.108 65.0606 78.4886 65.1761 77.7841 65.1761C76.8068 65.1761 76.0095 64.9678 75.392 64.5511C74.7746 64.1307 74.3958 63.5341 74.2557 62.7614L75.8977 62.5114C76 62.9394 76.2102 63.2633 76.5284 63.483C76.8466 63.6989 77.2614 63.8068 77.7727 63.8068C78.3295 63.8068 78.7746 63.6913 79.108 63.4602C79.4413 63.2254 79.608 62.9394 79.608 62.6023C79.608 62.3295 79.5057 62.1004 79.3011 61.9148C79.1004 61.7292 78.7917 61.589 78.375 61.4943L76.8977 61.1705C76.0833 60.9848 75.4811 60.6894 75.0909 60.2841C74.7045 59.8788 74.5114 59.3655 74.5114 58.7443C74.5114 58.2292 74.6553 57.7784 74.9432 57.392C75.2311 57.0057 75.6288 56.7045 76.1364 56.4886C76.6439 56.2689 77.2254 56.1591 77.8807 56.1591C78.8239 56.1591 79.5663 56.3636 80.108 56.7727C80.6496 57.178 81.0076 57.7216 81.1818 58.4034ZM87.294 56.2727V57.6364H82.527V56.2727H87.294ZM83.8054 54.1818H85.5043V62.4375C85.5043 62.767 85.5535 63.0152 85.652 63.1818C85.7505 63.3447 85.8774 63.4564 86.0327 63.517C86.1918 63.5739 86.3641 63.6023 86.5497 63.6023C86.6861 63.6023 86.8054 63.5928 86.9077 63.5739C87.0099 63.5549 87.0895 63.5398 87.1463 63.5284L87.4531 64.9318C87.3546 64.9697 87.2145 65.0076 87.0327 65.0455C86.8509 65.0871 86.6236 65.1098 86.3509 65.1136C85.9039 65.1212 85.4872 65.0417 85.1009 64.875C84.7145 64.7083 84.402 64.4508 84.1634 64.1023C83.9247 63.7538 83.8054 63.3163 83.8054 62.7898V54.1818ZM97.7997 53.3636V65H96.0384V55.125H95.9702L93.1861 56.9432V55.2614L96.0895 53.3636H97.7997ZM104.788 65.1591C104.076 65.1591 103.436 65.0227 102.868 64.75C102.304 64.4735 101.853 64.0947 101.516 63.6136C101.179 63.1326 100.999 62.5833 100.976 61.9659H102.68C102.722 62.4659 102.944 62.8769 103.345 63.1989C103.747 63.5208 104.228 63.6818 104.788 63.6818C105.235 63.6818 105.631 63.5795 105.976 63.375C106.324 63.1667 106.597 62.8807 106.794 62.517C106.995 62.1534 107.095 61.7386 107.095 61.2727C107.095 60.7992 106.993 60.3769 106.788 60.0057C106.584 59.6345 106.302 59.3428 105.942 59.1307C105.586 58.9186 105.177 58.8106 104.714 58.8068C104.362 58.8068 104.008 58.8674 103.652 58.9886C103.296 59.1098 103.008 59.2689 102.788 59.4659L101.18 59.2273L101.834 53.3636H108.232V54.8693H103.294L102.925 58.125H102.993C103.22 57.9053 103.521 57.7216 103.896 57.5739C104.275 57.4261 104.68 57.3523 105.112 57.3523C105.821 57.3523 106.451 57.5208 107.004 57.858C107.561 58.1951 107.999 58.6553 108.317 59.2386C108.639 59.8182 108.798 60.4848 108.794 61.2386C108.798 61.9924 108.627 62.6648 108.283 63.2557C107.942 63.8466 107.468 64.3125 106.862 64.6534C106.26 64.9905 105.569 65.1591 104.788 65.1591ZM115.126 65V56.2727H116.757V57.6932H116.865C117.047 57.2121 117.344 56.8371 117.757 56.5682C118.17 56.2955 118.664 56.1591 119.24 56.1591C119.823 56.1591 120.312 56.2955 120.706 56.5682C121.104 56.8409 121.397 57.2159 121.587 57.6932H121.678C121.886 57.2273 122.217 56.8561 122.672 56.5795C123.126 56.2992 123.668 56.1591 124.297 56.1591C125.089 56.1591 125.734 56.4072 126.234 56.9034C126.738 57.3996 126.99 58.1477 126.99 59.1477V65H125.291V59.3068C125.291 58.7159 125.13 58.2879 124.808 58.0227C124.486 57.7576 124.102 57.625 123.655 57.625C123.102 57.625 122.672 57.7955 122.365 58.1364C122.058 58.4735 121.905 58.9072 121.905 59.4375V65H120.212V59.1989C120.212 58.7254 120.064 58.3447 119.768 58.0568C119.473 57.7689 119.089 57.625 118.615 57.625C118.293 57.625 117.996 57.7102 117.723 57.8807C117.454 58.0473 117.236 58.2803 117.07 58.5795C116.907 58.8788 116.825 59.2254 116.825 59.6193V65H115.126ZM129.267 65V56.2727H130.966V65H129.267ZM130.125 54.9261C129.83 54.9261 129.576 54.8277 129.364 54.6307C129.155 54.4299 129.051 54.1913 129.051 53.9148C129.051 53.6345 129.155 53.3958 129.364 53.1989C129.576 52.9981 129.83 52.8977 130.125 52.8977C130.42 52.8977 130.672 52.9981 130.881 53.1989C131.093 53.3958 131.199 53.6345 131.199 53.9148C131.199 54.1913 131.093 54.4299 130.881 54.6307C130.672 54.8277 130.42 54.9261 130.125 54.9261ZM134.95 59.8182V65H133.251V56.2727H134.882V57.6932H134.99C135.191 57.2311 135.505 56.8598 135.933 56.5795C136.365 56.2992 136.909 56.1591 137.564 56.1591C138.159 56.1591 138.679 56.2841 139.126 56.5341C139.573 56.7803 139.92 57.1477 140.166 57.6364C140.412 58.125 140.536 58.7292 140.536 59.4489V65H138.837V59.6534C138.837 59.0208 138.672 58.5265 138.342 58.1705C138.013 57.8106 137.56 57.6307 136.984 57.6307C136.59 57.6307 136.24 57.7159 135.933 57.8864C135.63 58.0568 135.39 58.3068 135.212 58.6364C135.037 58.9621 134.95 59.3561 134.95 59.8182ZM148.342 61.3807V56.2727H150.047V65H148.376V63.4886H148.286C148.085 63.9545 147.763 64.3428 147.32 64.6534C146.88 64.9602 146.333 65.1136 145.678 65.1136C145.117 65.1136 144.621 64.9905 144.189 64.7443C143.761 64.4943 143.424 64.125 143.178 63.6364C142.935 63.1477 142.814 62.5436 142.814 61.8239V56.2727H144.513V61.6193C144.513 62.214 144.678 62.6875 145.007 63.0398C145.337 63.392 145.765 63.5682 146.291 63.5682C146.609 63.5682 146.926 63.4886 147.24 63.3295C147.558 63.1705 147.821 62.9299 148.03 62.608C148.242 62.286 148.346 61.8769 148.342 61.3807ZM156.403 56.2727V57.6364H151.636V56.2727H156.403ZM152.915 54.1818H154.614V62.4375C154.614 62.767 154.663 63.0152 154.761 63.1818C154.86 63.3447 154.987 63.4564 155.142 63.517C155.301 63.5739 155.473 63.6023 155.659 63.6023C155.795 63.6023 155.915 63.5928 156.017 63.5739C156.119 63.5549 156.199 63.5398 156.256 63.5284L156.562 64.9318C156.464 64.9697 156.324 65.0076 156.142 65.0455C155.96 65.0871 155.733 65.1098 155.46 65.1136C155.013 65.1212 154.597 65.0417 154.21 64.875C153.824 64.7083 153.511 64.4508 153.273 64.1023C153.034 63.7538 152.915 63.3163 152.915 62.7898V54.1818ZM161.95 65.1761C161.09 65.1761 160.35 64.9924 159.729 64.625C159.111 64.2538 158.634 63.733 158.297 63.0625C157.964 62.3883 157.797 61.5985 157.797 60.6932C157.797 59.7992 157.964 59.0114 158.297 58.3295C158.634 57.6477 159.104 57.1155 159.706 56.733C160.312 56.3504 161.02 56.1591 161.831 56.1591C162.323 56.1591 162.801 56.2405 163.263 56.4034C163.725 56.5663 164.14 56.822 164.507 57.1705C164.875 57.5189 165.164 57.9716 165.376 58.5284C165.589 59.0814 165.695 59.7538 165.695 60.5455V61.1477H158.757V59.875H164.03C164.03 59.428 163.939 59.0322 163.757 58.6875C163.575 58.339 163.32 58.0644 162.99 57.8636C162.664 57.6629 162.282 57.5625 161.842 57.5625C161.365 57.5625 160.948 57.6799 160.592 57.9148C160.24 58.1458 159.967 58.4489 159.774 58.8239C159.585 59.1951 159.49 59.5985 159.49 60.0341V61.0284C159.49 61.6117 159.592 62.108 159.797 62.517C160.005 62.9261 160.295 63.2386 160.666 63.4545C161.037 63.6667 161.471 63.7727 161.967 63.7727C162.289 63.7727 162.583 63.7273 162.848 63.6364C163.113 63.5417 163.342 63.4015 163.536 63.2159C163.729 63.0303 163.876 62.8011 163.979 62.5284L165.587 62.8182C165.458 63.2917 165.227 63.7064 164.893 64.0625C164.564 64.4148 164.149 64.6894 163.649 64.8864C163.153 65.0795 162.587 65.1761 161.95 65.1761ZM174.119 58.4034L172.58 58.6761C172.515 58.4792 172.413 58.2917 172.273 58.1136C172.136 57.9356 171.951 57.7898 171.716 57.6761C171.481 57.5625 171.188 57.5057 170.835 57.5057C170.354 57.5057 169.953 57.6136 169.631 57.8295C169.309 58.0417 169.148 58.3163 169.148 58.6534C169.148 58.9451 169.256 59.1799 169.472 59.358C169.688 59.536 170.036 59.6818 170.517 59.7955L171.903 60.1136C172.706 60.2992 173.305 60.5852 173.699 60.9716C174.093 61.358 174.29 61.8598 174.29 62.4773C174.29 63 174.138 63.4659 173.835 63.875C173.536 64.2803 173.117 64.5985 172.58 64.8295C172.045 65.0606 171.426 65.1761 170.722 65.1761C169.744 65.1761 168.947 64.9678 168.33 64.5511C167.712 64.1307 167.333 63.5341 167.193 62.7614L168.835 62.5114C168.938 62.9394 169.148 63.2633 169.466 63.483C169.784 63.6989 170.199 63.8068 170.71 63.8068C171.267 63.8068 171.712 63.6913 172.045 63.4602C172.379 63.2254 172.545 62.9394 172.545 62.6023C172.545 62.3295 172.443 62.1004 172.239 61.9148C172.038 61.7292 171.729 61.589 171.312 61.4943L169.835 61.1705C169.021 60.9848 168.419 60.6894 168.028 60.2841C167.642 59.8788 167.449 59.3655 167.449 58.7443C167.449 58.2292 167.593 57.7784 167.881 57.392C168.169 57.0057 168.566 56.7045 169.074 56.4886C169.581 56.2689 170.163 56.1591 170.818 56.1591C171.761 56.1591 172.504 56.3636 173.045 56.7727C173.587 57.178 173.945 57.7216 174.119 58.4034ZM177.277 65.108C176.966 65.108 176.699 64.9981 176.476 64.7784C176.252 64.5549 176.141 64.286 176.141 63.9716C176.141 63.661 176.252 63.3958 176.476 63.1761C176.699 62.9527 176.966 62.8409 177.277 62.8409C177.588 62.8409 177.855 62.9527 178.078 63.1761C178.302 63.3958 178.413 63.661 178.413 63.9716C178.413 64.1799 178.36 64.3712 178.254 64.5455C178.152 64.7159 178.016 64.8523 177.845 64.9545C177.675 65.0568 177.485 65.108 177.277 65.108Z" fill="black"/>
<defs>
<filter id="filter0_d_23_1069" x="0.3" y="0.3" width="212.4" height="109.4" filterUnits="userSpaceOnUse" color-interpolation-filters="sRGB">
<feFlood flood-opacity="0" result="BackgroundImageFix"/>
<feColorMatrix in="SourceAlpha" type="matrix" values="0 0 0 0 0 0 0 0 0 0 0 0 0 0 0 0 0 0 127 0" result="hardAlpha"/>
<feOffset dy="4"/>
<feGaussianBlur stdDeviation="7.85"/>
<feComposite in2="hardAlpha" operator="out"/>
<feColorMatrix type="matrix" values="0 0 0 0 0 0 0 0 0 0 0 0 0 0 0 0 0 0 0.07 0"/>
<feBlend mode="normal" in2="BackgroundImageFix" result="effect1_dropShadow_23_1069"/>
<feBlend mode="normal" in="SourceGraphic" in2="effect1_dropShadow_23_1069" result="shape"/>
</filter>
</defs>
</svg>
