<svg width="23" height="24" viewBox="0 0 23 24" fill="none" xmlns="http://www.w3.org/2000/svg">
<g clip-path="url(#clip0_57_1545)">
<path d="M11.5003 23.5001C17.8413 23.5001 23.0001 18.3411 23.0001 12C23.0001 5.65901 17.8413 0.500061 11.5003 0.500061C5.15933 0.500061 0.000488281 5.65901 0.000488281 12C0.000488281 18.3411 5.15933 23.5001 11.5003 23.5001ZM11.5003 2.07432C16.9733 2.07432 21.4258 6.52695 21.4259 12C21.4259 17.4731 16.9734 21.9257 11.5003 21.9258C6.02737 21.9257 1.57485 17.4731 1.57485 11.9999C1.57485 6.52705 6.02737 2.07432 11.5003 2.07432Z" fill="#54BD95"/>
<path d="M9.95541 16.9254C10.2628 17.2327 10.7612 17.2326 11.0685 16.9254C11.376 16.6179 11.376 16.1196 11.0684 15.8121L8.04374 12.7875L16.8026 12.7867C17.2373 12.7866 17.5896 12.4343 17.5896 11.9994C17.5895 11.5647 17.2372 11.2124 16.8025 11.2124L8.04332 11.2133L11.0687 8.18808C11.3761 7.88068 11.3761 7.38217 11.0687 7.07488C10.915 6.92123 10.7136 6.8443 10.5121 6.8443C10.3107 6.8443 10.1093 6.92123 9.95552 7.07477L5.58653 11.4436C5.43887 11.5912 5.35596 11.7913 5.35596 12.0002C5.35606 12.2091 5.43897 12.4091 5.58664 12.557L9.95541 16.9254Z" fill="#54BD95"/>
</g>
<defs>
<clipPath id="clip0_57_1545">
<rect width="23" height="23" fill="white" transform="translate(0 0.5)"/>
</clipPath>
</defs>
</svg>
