<svg width="32" height="33" viewBox="0 0 32 33" fill="none" xmlns="http://www.w3.org/2000/svg">
<g clip-path="url(#clip0_57_1404)">
<path d="M25.2688 0.5H6.72852C5.1777 0.5 3.91602 1.76169 3.91602 3.3125V29.6875C3.91602 31.2383 5.1777 32.5 6.72852 32.5H25.2688C26.8196 32.5 28.0813 31.2383 28.0813 29.6875V3.3125C28.0813 1.76169 26.8196 0.5 25.2688 0.5ZM7.73433 6.02187C7.73433 5.60938 8.07183 5.27187 8.48433 5.27187H23.7639C24.1764 5.27187 24.5139 5.60938 24.5139 6.02187V8.88119C24.514 9.29369 24.1765 9.63119 23.764 9.63119H8.48433C8.07183 9.63119 7.73433 9.29369 7.73433 8.88119V6.02187ZM16.8754 16.2747H15.1221C14.6043 16.2747 14.1846 15.8549 14.1846 15.3372V14.0632C14.1846 13.5455 14.6043 13.1257 15.1221 13.1257H16.8754C17.3931 13.1257 17.8129 13.5455 17.8129 14.0632V15.3372C17.8129 15.8549 17.3931 16.2747 16.8754 16.2747ZM17.8129 20.1021V21.3761C17.8129 21.8938 17.3931 22.3136 16.8754 22.3136H15.1221C14.6043 22.3136 14.1846 21.8938 14.1846 21.3761V20.1021C14.1846 19.5843 14.6043 19.1646 15.1221 19.1646H16.8754C17.3931 19.1646 17.8129 19.5844 17.8129 20.1021ZM11.1116 27.4149C11.1116 27.9327 10.6919 28.3524 10.1741 28.3524H8.42083C7.90308 28.3524 7.48333 27.9327 7.48333 27.4149V26.141C7.48333 25.6233 7.90308 25.2035 8.42083 25.2035H10.1741C10.6919 25.2035 11.1116 25.6232 11.1116 26.141V27.4149ZM11.1116 21.3761C11.1116 21.8938 10.6919 22.3136 10.1741 22.3136H8.42083C7.90308 22.3136 7.48333 21.8938 7.48333 21.3761V20.1021C7.48333 19.5844 7.90308 19.1646 8.42083 19.1646H10.1741C10.6919 19.1646 11.1116 19.5844 11.1116 20.1021V21.3761ZM11.1116 15.3372C11.1116 15.8549 10.6919 16.2747 10.1741 16.2747H8.42083C7.90308 16.2747 7.48333 15.8549 7.48333 15.3372V14.0632C7.48333 13.5455 7.90308 13.1257 8.42083 13.1257H10.1741C10.6919 13.1257 11.1116 13.5455 11.1116 14.0632V15.3372ZM24.514 27.4149C24.514 27.9327 24.0942 28.3524 23.5765 28.3524H15.122C14.6043 28.3524 14.1845 27.9327 14.1845 27.4149V26.141C14.1845 25.6232 14.6042 25.2035 15.122 25.2035H23.5765C24.0942 25.2035 24.514 25.6233 24.514 26.141V27.4149ZM24.514 21.3761C24.514 21.8938 24.0942 22.3136 23.5765 22.3136H21.8231C21.3054 22.3136 20.8856 21.8938 20.8856 21.3761V20.1021C20.8856 19.5844 21.3054 19.1646 21.8231 19.1646H23.5765C24.0942 19.1646 24.514 19.5844 24.514 20.1021V21.3761ZM24.514 15.3372C24.514 15.8549 24.0942 16.2747 23.5765 16.2747H21.8231C21.3054 16.2747 20.8856 15.8549 20.8856 15.3372V14.0632C20.8856 13.5455 21.3054 13.1257 21.8231 13.1257H23.5765C24.0942 13.1257 24.514 13.5455 24.514 14.0632V15.3372Z" fill="#54BD95"/>
</g>
<defs>
<clipPath id="clip0_57_1404">
<rect width="32" height="32" fill="white" transform="translate(0 0.5)"/>
</clipPath>
</defs>
</svg>
