<svg width="54" height="71" viewBox="0 0 54 71" fill="none" xmlns="http://www.w3.org/2000/svg">
<path fill-rule="evenodd" clip-rule="evenodd" d="M8.4735 27.2835C6.543 20.6966 4.41563 13.437 3.50775 9.33187L2.8215 6.22912L3.98475 9.18675C4.07925 9.42863 4.374 9.94387 4.70363 10.4816C5.11538 11.1555 5.5755 11.8541 5.77012 12.1027L5.78025 12.1151V12.1162C6.54187 13.0882 7.09537 13.7936 8.03925 14.6081C9.009 15.4451 10.2308 15.8794 11.412 15.9199C12.6045 15.9604 13.752 15.6004 14.553 14.85C15.8119 13.6676 17.1338 11.3063 17.9235 8.13375C18.2779 6.7095 18.5243 5.12325 18.6086 3.40875C18.2835 5.59462 17.73 8.0055 16.9256 10.0744C16.2832 11.7259 15.4789 13.167 14.499 14.1176C13.4854 15.1009 12.2884 15.5655 10.8956 15.2179C10.0924 15.0165 9.2295 14.5417 8.30475 13.734C5.96137 11.6854 4.0725 8.04825 2.39287 4.81275C1.83375 3.73162 1.29712 2.69775 0.770625 1.7775L0.76725 1.77187L0.75825 1.75162L0 0C0.8145 3.20738 1.8585 7.09425 2.97563 11.2534C5.8725 22.041 9.261 34.6545 10.4119 41.9962C11.1263 40.7317 12.0116 39.4762 13.0387 38.2534C17.0753 33.4507 23.3167 29.1667 30.0791 26.8751C36.8595 24.5779 44.1698 24.2798 50.3269 27.4613C51.0221 27.8201 51.7028 28.224 52.3665 28.6751C52.1044 28.4051 51.8299 28.1475 51.543 27.9023C47.8181 24.7174 42.1268 23.6745 36.0259 24.3349C29.8991 24.9986 23.3662 27.3791 17.9876 31.032C15.5734 32.6722 13.392 34.569 11.5852 36.6817L11.2793 37.0395L11.1544 36.585C10.4535 34.0425 9.4905 30.7564 8.4735 27.2835ZM42.7725 28.656C36.297 28.656 30.1702 31.3335 25.2056 34.8221C18.1035 39.8126 13.365 46.4985 13.365 49.392C13.365 50.7139 13.8296 51.1324 14.4416 51.3866C14.3134 51.3979 14.166 51.4035 13.9927 51.4035V51.4046H13.9489C13.2806 51.3911 12.6034 51.0581 12.0904 50.5046C11.5729 49.9466 11.2264 49.1647 11.2264 48.258H11.2252L11.2264 48.1837C11.313 44.136 15.7568 38.7686 22.0365 34.5859C27.6885 30.8205 34.8187 28.0294 41.5991 28.0294C45.2452 28.0294 48.5347 28.8664 50.8061 30.7687C52.7884 32.4292 54 34.9132 54 38.3771C54 44.9944 48.87 53.3554 41.8196 59.9501C35.0865 66.249 26.6108 70.9268 19.188 70.9268V70.9279L19.053 70.9268C16.6556 70.9009 14.6711 70.191 13.2896 69.0176C11.9216 67.8566 11.1442 66.2378 11.1442 64.3815H11.1431V64.3129C11.2624 58.2626 15.6769 51.2437 21.4099 45.5659C27.6469 39.3896 35.4285 34.8154 40.9297 34.8154C42.1594 34.8154 43.2652 35.1022 44.0404 35.6389C44.7345 36.1193 45.1609 36.8044 45.1609 37.665C45.1609 37.7651 45.1541 37.8686 45.1418 37.9755C44.9482 37.692 44.6625 37.4535 44.3239 37.26C43.7242 36.9169 42.9502 36.7166 42.2426 36.6716C42.1335 36.6649 42.03 36.6604 41.9344 36.6604C37.1745 36.6604 29.7517 41.463 23.6689 47.583C17.9696 53.316 13.428 60.2201 13.3245 65.4345L13.3234 65.439C13.3234 66.8374 13.7846 67.8285 14.5946 68.4866C15.4699 69.1976 16.74 69.5025 18.2666 69.5025C23.6857 69.5025 32.8579 63.9292 40.2019 56.7326C46.5896 50.472 51.6116 42.975 51.6116 36.8246C51.6116 33.5497 50.5136 31.5056 48.8498 30.2771C47.196 29.0565 44.9977 28.656 42.7725 28.656ZM51.5767 14.3966C51.273 15.2708 50.9839 16.0369 50.7465 16.6117C50.5451 17.0977 50.3482 17.4634 50.1536 17.8256C50.031 18.0551 49.9072 18.2835 49.7745 18.5625C49.3954 19.3567 48.9398 20.0441 48.4538 20.5121C48.1613 20.7945 47.8609 20.9947 47.565 21.0859C47.2882 21.1714 47.0115 21.1612 46.7437 21.0341C46.5885 20.9599 46.4321 20.8451 46.278 20.6854C45.5119 19.8911 45.0034 18.4207 44.6445 16.7051C44.2789 14.9614 44.0707 12.9724 43.902 11.1757L43.803 9.594C43.8649 10.1925 43.9234 10.7854 43.9717 11.3816V11.3827C44.0055 11.7866 44.0629 12.1702 44.1225 12.5651C44.1821 12.96 44.244 13.3672 44.2834 13.8195C44.3261 14.3111 44.4645 14.9152 44.5905 15.4676C44.64 15.6848 44.6884 15.894 44.7233 16.0616C44.9932 17.3678 45.3746 18.513 45.8606 19.2724C46.1419 19.7122 46.4614 20.0306 46.8214 20.187C47.2039 20.3546 47.6167 20.3411 48.0555 20.1049C48.4166 19.9102 48.7957 19.5592 49.1906 19.0249C49.7677 18.2441 50.2571 17.3801 50.7049 16.4351C51.0097 15.795 51.2955 15.1155 51.5767 14.3966ZM21.8182 11.2016C22.3312 12.3964 22.8555 13.5112 23.4866 14.5597C24.12 15.6127 24.8625 16.5971 25.8064 17.5264C26.01 17.7266 26.2147 17.9089 26.4195 18.0697C27.8156 19.1767 29.2511 19.4546 30.6225 19.1677C31.9759 18.8843 33.2561 18.0495 34.3642 16.9222C34.6725 16.6084 34.9684 16.2731 35.2462 15.9221C35.3801 15.7545 35.5354 15.57 35.6974 15.3799C36.1204 14.8815 36.5839 14.337 36.8235 13.86V13.8589C37.0316 13.4438 37.2802 13.0646 37.521 12.6979C37.7606 12.3322 37.9924 11.9767 38.1847 11.5875V11.5864C38.5571 10.8304 38.9779 10.0586 39.4087 9.26888C39.8407 8.47687 40.2829 7.66687 40.6935 6.84225L40.6957 6.84L41.8522 4.41675L41.787 4.60687C41.4349 5.62162 41.0355 6.63075 40.7205 7.41488L38.9531 11.3681C38.0734 13.0624 37.0552 14.9299 35.7952 16.506C34.5487 18.0653 33.0604 19.3455 31.2266 19.8979C30.5876 20.0902 29.961 20.1577 29.3591 20.1229C28.7145 20.0857 28.0935 19.9294 27.513 19.6819C26.6344 19.3072 25.7861 18.6165 25.0301 17.7964C24.1054 16.7917 23.3235 15.5947 22.797 14.5406C22.1186 13.1816 21.2017 10.4276 20.6077 7.506C20.5819 7.38 20.5571 7.254 20.5324 7.128C20.9284 8.71313 21.3941 10.2127 21.8182 11.2016Z" fill="white"/>
</svg>
