<svg width="21" height="26" viewBox="0 0 21 26" fill="none" xmlns="http://www.w3.org/2000/svg">
<path fill-rule="evenodd" clip-rule="evenodd" d="M15.1299 1.4218C16.6916 2.17744 17.5689 3.20229 17.5689 4.27092H9.24174L0.914604 4.27092C0.914604 3.20229 1.79193 2.17743 3.35357 1.4218C4.91521 0.666169 7.03325 0.241659 9.24174 0.241659C11.4502 0.241659 13.5683 0.666169 15.1299 1.4218ZM3.35351 24.0429C1.79187 23.2873 0.914551 22.2624 0.914551 21.1938H9.24169L17.5688 21.1938C17.5688 22.2624 16.6915 23.2873 15.1299 24.0429C13.5682 24.7986 11.4502 25.2231 9.24169 25.2231C7.03319 25.2231 4.91515 24.7986 3.35351 24.0429ZM15.0707 14.747H20.067V17.9704H15.0707V14.747ZM5.91083 7.49433H0.914551V10.7177H5.91083V7.49433ZM10.0744 7.49433H20.067V10.7177H10.0744V7.49433ZM10.9071 17.9704V14.747H0.914551V17.9704H10.9071Z" fill="white"/>
</svg>
