<svg width="78" height="78" viewBox="0 0 78 78" fill="none" xmlns="http://www.w3.org/2000/svg">
<g filter="url(#filter0_d_2002_251)">
<rect x="9" y="5" width="60" height="60" fill="white"/>
</g>
<path fill-rule="evenodd" clip-rule="evenodd" d="M50.3438 44.5C50.3438 45.3201 50.0175 46.1076 49.4381 46.6881C48.8576 47.2675 48.0701 47.5938 47.25 47.5938H33.75C32.9299 47.5938 32.1424 47.2675 31.5619 46.6881C30.9825 46.1076 30.6562 45.3201 30.6562 44.5V26.5C30.6562 25.6799 30.9825 24.8924 31.5619 24.3119C32.1424 23.7325 32.9299 23.4062 33.75 23.4062H43.4093C43.9313 23.4062 44.4319 23.6133 44.8009 23.9834L49.7666 28.9491C50.1367 29.3181 50.3438 29.8188 50.3438 30.3408V44.5ZM48.6562 44.5V30.3408C48.6562 30.2665 48.627 30.1945 48.5741 30.1416L43.6084 25.1759C43.5555 25.123 43.4835 25.0938 43.4093 25.0938H33.75C33.3765 25.0938 33.0199 25.2423 32.7555 25.5055C32.4923 25.7699 32.3438 26.1265 32.3438 26.5V44.5C32.3438 44.8735 32.4923 45.2301 32.7555 45.4945C33.0199 45.7578 33.3765 45.9063 33.75 45.9063H47.25C47.6235 45.9063 47.9801 45.7578 48.2445 45.4945C48.5078 45.2301 48.6562 44.8735 48.6562 44.5Z" fill="#54BD95"/>
<path fill-rule="evenodd" clip-rule="evenodd" d="M43.0312 24.8125C43.0312 24.3467 43.4092 23.9688 43.875 23.9688C44.3407 23.9688 44.7188 24.3467 44.7188 24.8125V28.75C44.7188 28.9053 44.8448 29.0312 45 29.0312H48.9375C49.4033 29.0312 49.7812 29.4092 49.7812 29.875C49.7812 30.3408 49.4033 30.7188 48.9375 30.7188H45C43.9121 30.7188 43.0312 29.8379 43.0312 28.75V24.8125Z" fill="#54BD95"/>
<path fill-rule="evenodd" clip-rule="evenodd" d="M36 34.6562C35.5342 34.6562 35.1562 34.2782 35.1562 33.8125C35.1562 33.3467 35.5342 32.9688 36 32.9688H45C45.4657 32.9688 45.8438 33.3467 45.8438 33.8125C45.8438 34.2782 45.4657 34.6562 45 34.6562H36Z" fill="#54BD95"/>
<path fill-rule="evenodd" clip-rule="evenodd" d="M36 38.5938C35.5342 38.5938 35.1562 38.2157 35.1562 37.75C35.1562 37.2842 35.5342 36.9062 36 36.9062H45C45.4657 36.9062 45.8438 37.2842 45.8438 37.75C45.8438 38.2157 45.4657 38.5938 45 38.5938H36Z" fill="#54BD95"/>
<path fill-rule="evenodd" clip-rule="evenodd" d="M36 42.5312C35.5342 42.5312 35.1562 42.1532 35.1562 41.6875C35.1562 41.2217 35.5342 40.8438 36 40.8438H41.0625C41.5283 40.8438 41.9062 41.2217 41.9062 41.6875C41.9062 42.1532 41.5283 42.5312 41.0625 42.5312H36Z" fill="#54BD95"/>
<defs>
<filter id="filter0_d_2002_251" x="0" y="0" width="78" height="78" filterUnits="userSpaceOnUse" color-interpolation-filters="sRGB">
<feFlood flood-opacity="0" result="BackgroundImageFix"/>
<feColorMatrix in="SourceAlpha" type="matrix" values="0 0 0 0 0 0 0 0 0 0 0 0 0 0 0 0 0 0 127 0" result="hardAlpha"/>
<feOffset dy="4"/>
<feGaussianBlur stdDeviation="4.5"/>
<feComposite in2="hardAlpha" operator="out"/>
<feColorMatrix type="matrix" values="0 0 0 0 0 0 0 0 0 0 0 0 0 0 0 0 0 0 0.05 0"/>
<feBlend mode="normal" in2="BackgroundImageFix" result="effect1_dropShadow_2002_251"/>
<feBlend mode="normal" in="SourceGraphic" in2="effect1_dropShadow_2002_251" result="shape"/>
</filter>
</defs>
</svg>
