<svg width="170" height="70" viewBox="0 0 170 70" fill="none" xmlns="http://www.w3.org/2000/svg">
<rect width="170" height="70" rx="10" fill="white"/>
<path d="M58.4333 29.9487L55.206 18.3124H57.0526L59.3196 27.3237H59.4276L61.7856 18.3124H63.6151L65.9731 27.3294H66.081L68.3424 18.3124H70.1946L66.9617 29.9487H65.1946L62.7458 21.2328H62.6549L60.206 29.9487H58.4333ZM71.6591 29.9487V21.2215H73.358V29.9487H71.6591ZM72.5171 19.8749C72.2216 19.8749 71.9678 19.7764 71.7557 19.5794C71.5474 19.3787 71.4432 19.14 71.4432 18.8635C71.4432 18.5832 71.5474 18.3446 71.7557 18.1476C71.9678 17.9468 72.2216 17.8465 72.5171 17.8465C72.8125 17.8465 73.0644 17.9468 73.2728 18.1476C73.4849 18.3446 73.591 18.5832 73.591 18.8635C73.591 19.14 73.4849 19.3787 73.2728 19.5794C73.0644 19.7764 72.8125 19.8749 72.5171 19.8749ZM79.7174 21.2215V22.5851H74.9503V21.2215H79.7174ZM76.2287 19.1305H77.9276V27.3862C77.9276 27.7158 77.9768 27.9639 78.0753 28.1305C78.1738 28.2934 78.3007 28.4052 78.456 28.4658C78.6151 28.5226 78.7874 28.551 78.9731 28.551C79.1094 28.551 79.2287 28.5415 79.331 28.5226C79.4333 28.5037 79.5128 28.4885 79.5696 28.4771L79.8765 29.8805C79.778 29.9184 79.6378 29.9563 79.456 29.9942C79.2742 30.0359 79.0469 30.0586 78.7742 30.0624C78.3272 30.0699 77.9106 29.9904 77.5242 29.8237C77.1378 29.6571 76.8253 29.3995 76.5867 29.051C76.3481 28.7025 76.2287 28.265 76.2287 27.7385V19.1305ZM83.483 24.7669V29.9487H81.7841V18.3124H83.4603V22.6419H83.5682C83.7728 22.1722 84.0853 21.7991 84.5057 21.5226C84.9262 21.2461 85.4754 21.1078 86.1535 21.1078C86.7519 21.1078 87.2747 21.2309 87.7216 21.4771C88.1724 21.7234 88.5209 22.0908 88.7671 22.5794C89.0171 23.0643 89.1421 23.6703 89.1421 24.3976V29.9487H87.4432V24.6021C87.4432 23.962 87.2785 23.4658 86.9489 23.1135C86.6194 22.7574 86.161 22.5794 85.5739 22.5794C85.1724 22.5794 84.8125 22.6646 84.4944 22.8351C84.18 23.0055 83.9319 23.2555 83.75 23.5851C83.572 23.9109 83.483 24.3048 83.483 24.7669ZM99.4049 30.1249C98.545 30.1249 97.8045 29.9412 97.1833 29.5737C96.5659 29.2025 96.0886 28.6817 95.7515 28.0112C95.4181 27.337 95.2515 26.5472 95.2515 25.6419C95.2515 24.748 95.4181 23.9601 95.7515 23.2783C96.0886 22.5965 96.5583 22.0643 97.1606 21.6817C97.7666 21.2991 98.4749 21.1078 99.2856 21.1078C99.778 21.1078 100.255 21.1893 100.717 21.3521C101.179 21.515 101.594 21.7707 101.962 22.1192C102.329 22.4677 102.619 22.9203 102.831 23.4771C103.043 24.0302 103.149 24.7025 103.149 25.4942V26.0965H96.2117V24.8237H101.484C101.484 24.3768 101.394 23.9809 101.212 23.6362C101.03 23.2877 100.774 23.0131 100.445 22.8124C100.119 22.6116 99.7363 22.5112 99.2969 22.5112C98.8196 22.5112 98.403 22.6287 98.0469 22.8635C97.6946 23.0946 97.4219 23.3976 97.2287 23.7726C97.0393 24.1438 96.9446 24.5472 96.9446 24.9828V25.9771C96.9446 26.5605 97.0469 27.0567 97.2515 27.4658C97.4598 27.8749 97.7496 28.1874 98.1208 28.4033C98.492 28.6154 98.9257 28.7215 99.4219 28.7215C99.7439 28.7215 100.037 28.676 100.303 28.5851C100.568 28.4904 100.797 28.3502 100.99 28.1646C101.183 27.979 101.331 27.7499 101.433 27.4771L103.041 27.7669C102.912 28.2404 102.681 28.6552 102.348 29.0112C102.019 29.3635 101.604 29.6381 101.104 29.8351C100.608 30.0283 100.041 30.1249 99.4049 30.1249ZM106.172 21.2215L108.098 24.6192L110.041 21.2215H111.899L109.178 25.5851L111.922 29.9487H110.064L108.098 26.6874L106.138 29.9487H104.274L106.99 25.5851L104.308 21.2215H106.172ZM113.644 33.2215V21.2215H115.303V22.6362H115.445C115.543 22.4544 115.685 22.2442 115.871 22.0055C116.056 21.7669 116.314 21.5586 116.644 21.3805C116.973 21.1987 117.409 21.1078 117.95 21.1078C118.655 21.1078 119.284 21.2859 119.837 21.6419C120.39 21.998 120.823 22.5112 121.138 23.1817C121.456 23.8521 121.615 24.659 121.615 25.6021C121.615 26.5453 121.458 27.354 121.144 28.0283C120.829 28.6987 120.397 29.2158 119.848 29.5794C119.299 29.9393 118.672 30.1192 117.967 30.1192C117.437 30.1192 117.003 30.0302 116.666 29.8521C116.333 29.6741 116.072 29.4658 115.882 29.2271C115.693 28.9885 115.547 28.7764 115.445 28.5908H115.342V33.2215H113.644ZM115.308 25.5851C115.308 26.1987 115.397 26.7366 115.575 27.1987C115.753 27.6609 116.011 28.0226 116.348 28.284C116.685 28.5415 117.098 28.6703 117.587 28.6703C118.094 28.6703 118.519 28.5359 118.859 28.2669C119.2 27.9942 119.458 27.6249 119.632 27.159C119.81 26.693 119.899 26.1684 119.899 25.5851C119.899 25.0093 119.812 24.4923 119.638 24.034C119.467 23.5756 119.21 23.2139 118.865 22.9487C118.524 22.6836 118.098 22.551 117.587 22.551C117.094 22.551 116.678 22.6779 116.337 22.9317C116 23.1855 115.744 23.5396 115.57 23.9942C115.395 24.4487 115.308 24.979 115.308 25.5851ZM127.28 30.1249C126.42 30.1249 125.679 29.9412 125.058 29.5737C124.441 29.2025 123.964 28.6817 123.626 28.0112C123.293 27.337 123.126 26.5472 123.126 25.6419C123.126 24.748 123.293 23.9601 123.626 23.2783C123.964 22.5965 124.433 22.0643 125.036 21.6817C125.642 21.2991 126.35 21.1078 127.161 21.1078C127.653 21.1078 128.13 21.1893 128.592 21.3521C129.054 21.515 129.469 21.7707 129.837 22.1192C130.204 22.4677 130.494 22.9203 130.706 23.4771C130.918 24.0302 131.024 24.7025 131.024 25.4942V26.0965H124.087V24.8237H129.359C129.359 24.3768 129.269 23.9809 129.087 23.6362C128.905 23.2877 128.649 23.0131 128.32 22.8124C127.994 22.6116 127.611 22.5112 127.172 22.5112C126.695 22.5112 126.278 22.6287 125.922 22.8635C125.57 23.0946 125.297 23.3976 125.104 23.7726C124.914 24.1438 124.82 24.5472 124.82 24.9828V25.9771C124.82 26.5605 124.922 27.0567 125.126 27.4658C125.335 27.8749 125.625 28.1874 125.996 28.4033C126.367 28.6154 126.801 28.7215 127.297 28.7215C127.619 28.7215 127.912 28.676 128.178 28.5851C128.443 28.4904 128.672 28.3502 128.865 28.1646C129.058 27.979 129.206 27.7499 129.308 27.4771L130.916 27.7669C130.787 28.2404 130.556 28.6552 130.223 29.0112C129.894 29.3635 129.479 29.6381 128.979 29.8351C128.483 30.0283 127.916 30.1249 127.28 30.1249ZM132.909 29.9487V21.2215H134.551V22.6078H134.642C134.801 22.1381 135.081 21.7688 135.483 21.4999C135.888 21.2271 136.347 21.0908 136.858 21.0908C136.964 21.0908 137.089 21.0946 137.233 21.1021C137.381 21.1097 137.496 21.1192 137.58 21.1305V22.7555C137.511 22.7366 137.39 22.7158 137.216 22.693C137.042 22.6665 136.867 22.6533 136.693 22.6533C136.292 22.6533 135.934 22.7385 135.619 22.909C135.309 23.0756 135.063 23.3086 134.881 23.6078C134.699 23.9033 134.608 24.2404 134.608 24.6192V29.9487H132.909ZM143.639 21.2215V22.5851H138.872V21.2215H143.639ZM140.151 19.1305H141.849V27.3862C141.849 27.7158 141.899 27.9639 141.997 28.1305C142.096 28.2934 142.223 28.4052 142.378 28.4658C142.537 28.5226 142.709 28.551 142.895 28.551C143.031 28.551 143.151 28.5415 143.253 28.5226C143.355 28.5037 143.435 28.4885 143.492 28.4771L143.798 29.8805C143.7 29.9184 143.56 29.9563 143.378 29.9942C143.196 30.0359 142.969 30.0586 142.696 30.0624C142.249 30.0699 141.832 29.9904 141.446 29.8237C141.06 29.6571 140.747 29.3995 140.509 29.051C140.27 28.7025 140.151 28.265 140.151 27.7385V19.1305ZM59.6776 52.4033C58.9844 52.4033 58.3878 52.3124 57.8878 52.1305C57.3916 51.9487 56.9863 51.7082 56.6719 51.409C56.3575 51.1097 56.1227 50.7821 55.9674 50.426L57.4276 49.8237C57.5299 49.9904 57.6662 50.1665 57.8367 50.3521C58.0109 50.5415 58.2458 50.7025 58.5412 50.8351C58.8405 50.9677 59.2249 51.034 59.6946 51.034C60.3386 51.034 60.8708 50.8768 61.2912 50.5624C61.7117 50.2518 61.9219 49.7555 61.9219 49.0737V47.3578H61.814C61.7117 47.5434 61.564 47.7499 61.3708 47.9771C61.1814 48.2044 60.92 48.4014 60.5867 48.568C60.2534 48.7347 59.8196 48.818 59.2856 48.818C58.5962 48.818 57.9749 48.6571 57.4219 48.3351C56.8727 48.0093 56.4371 47.5302 56.1151 46.8976C55.7969 46.2612 55.6378 45.479 55.6378 44.551C55.6378 43.623 55.795 42.8275 56.1094 42.1646C56.4276 41.5018 56.8632 40.9942 57.4162 40.6419C57.9693 40.2859 58.5962 40.1078 59.2969 40.1078C59.8386 40.1078 60.2761 40.1987 60.6094 40.3805C60.9428 40.5586 61.2022 40.7669 61.3878 41.0055C61.5772 41.2442 61.7231 41.4544 61.8253 41.6362H61.9503V40.2215H63.6151V49.1419C63.6151 49.8919 63.4409 50.5074 63.0924 50.9885C62.7439 51.4696 62.2723 51.8256 61.6776 52.0567C61.0867 52.2877 60.42 52.4033 59.6776 52.4033ZM59.6606 47.409C60.1492 47.409 60.5621 47.2953 60.8992 47.068C61.2401 46.837 61.4977 46.5074 61.6719 46.0794C61.8499 45.6476 61.939 45.1305 61.939 44.5283C61.939 43.9412 61.8518 43.4241 61.6776 42.9771C61.5034 42.5302 61.2477 42.1817 60.9106 41.9317C60.5734 41.6779 60.1568 41.551 59.6606 41.551C59.1492 41.551 58.7231 41.6836 58.3821 41.9487C58.0412 42.2101 57.7837 42.5662 57.6094 43.0169C57.439 43.4677 57.3537 43.9715 57.3537 44.5283C57.3537 45.1002 57.4409 45.6021 57.6151 46.034C57.7893 46.4658 58.0469 46.8029 58.3878 47.0453C58.7325 47.2877 59.1568 47.409 59.6606 47.409ZM71.4219 45.3294V40.2215H73.1265V48.9487H71.456V47.4374H71.3651C71.1643 47.9033 70.8424 48.2915 70.3992 48.6021C69.9598 48.909 69.4124 49.0624 68.7571 49.0624C68.1965 49.0624 67.7003 48.9393 67.2685 48.693C66.8405 48.443 66.5034 48.0737 66.2571 47.5851C66.0147 47.0965 65.8935 46.4923 65.8935 45.7726V40.2215H67.5924V45.568C67.5924 46.1627 67.7571 46.6362 68.0867 46.9885C68.4162 47.3408 68.8443 47.5169 69.3708 47.5169C69.689 47.5169 70.0053 47.4374 70.3196 47.2783C70.6378 47.1192 70.9011 46.8787 71.1094 46.5567C71.3215 46.2347 71.4257 45.8256 71.4219 45.3294ZM75.4091 48.9487V40.2215H77.108V48.9487H75.4091ZM76.2671 38.8749C75.9716 38.8749 75.7178 38.7764 75.5057 38.5794C75.2974 38.3787 75.1932 38.14 75.1932 37.8635C75.1932 37.5832 75.2974 37.3446 75.5057 37.1476C75.7178 36.9468 75.9716 36.8465 76.2671 36.8465C76.5625 36.8465 76.8144 36.9468 77.0228 37.1476C77.2349 37.3446 77.341 37.5832 77.341 37.8635C77.341 38.14 77.2349 38.3787 77.0228 38.5794C76.8144 38.7764 76.5625 38.8749 76.2671 38.8749ZM82.6606 49.1192C81.956 49.1192 81.3272 48.9393 80.7742 48.5794C80.2249 48.2158 79.7931 47.6987 79.4787 47.0283C79.1681 46.354 79.0128 45.5453 79.0128 44.6021C79.0128 43.659 79.17 42.8521 79.4844 42.1817C79.8026 41.5112 80.2382 40.998 80.7912 40.6419C81.3443 40.2859 81.9712 40.1078 82.6719 40.1078C83.2136 40.1078 83.6492 40.1987 83.9787 40.3805C84.3121 40.5586 84.5696 40.7669 84.7515 41.0055C84.9371 41.2442 85.081 41.4544 85.1833 41.6362H85.2856V37.3124H86.9844V48.9487H85.3253V47.5908H85.1833C85.081 47.7764 84.9333 47.9885 84.7401 48.2271C84.5507 48.4658 84.2893 48.6741 83.956 48.8521C83.6227 49.0302 83.1909 49.1192 82.6606 49.1192ZM83.0356 47.6703C83.5242 47.6703 83.9371 47.5415 84.2742 47.284C84.6151 47.0226 84.8727 46.6609 85.0469 46.1987C85.2249 45.7366 85.314 45.1987 85.314 44.5851C85.314 43.979 85.2268 43.4487 85.0526 42.9942C84.8784 42.5396 84.6227 42.1855 84.2856 41.9317C83.9484 41.6779 83.5318 41.551 83.0356 41.551C82.5242 41.551 82.0981 41.6836 81.7571 41.9487C81.4162 42.2139 81.1587 42.5756 80.9844 43.034C80.814 43.4923 80.7287 44.0093 80.7287 44.5851C80.7287 45.1684 80.8159 45.693 80.9901 46.159C81.1643 46.6249 81.4219 46.9942 81.7628 47.2669C82.1075 47.5359 82.5318 47.6703 83.0356 47.6703ZM91.9489 49.1419C91.3959 49.1419 90.8959 49.0396 90.4489 48.8351C90.0019 48.6268 89.6478 48.3256 89.3864 47.9317C89.1288 47.5377 89 47.0548 89 46.4828C89 45.9904 89.0947 45.5851 89.2841 45.2669C89.4735 44.9487 89.7292 44.6968 90.0512 44.5112C90.3732 44.3256 90.733 44.1855 91.1307 44.0908C91.5285 43.9961 91.9338 43.9241 92.3466 43.8749C92.8694 43.8143 93.2936 43.765 93.6194 43.7271C93.9451 43.6855 94.1819 43.6192 94.3296 43.5283C94.4773 43.4374 94.5512 43.2896 94.5512 43.0851V43.0453C94.5512 42.5491 94.411 42.1646 94.1307 41.8919C93.8542 41.6192 93.4413 41.4828 92.8921 41.4828C92.3201 41.4828 91.8694 41.6097 91.5398 41.8635C91.2141 42.1135 90.9887 42.3919 90.8637 42.6987L89.2671 42.3351C89.4565 41.8048 89.733 41.3768 90.0966 41.051C90.4641 40.7215 90.8864 40.4828 91.3637 40.3351C91.841 40.1836 92.3428 40.1078 92.8694 40.1078C93.2178 40.1078 93.5872 40.1495 93.9773 40.2328C94.3713 40.3124 94.7387 40.4601 95.0796 40.676C95.4243 40.8919 95.7065 41.2006 95.9262 41.6021C96.1459 41.9999 96.2557 42.5169 96.2557 43.1533V48.9487H94.5966V47.7555H94.5285C94.4186 47.9752 94.2538 48.1912 94.0341 48.4033C93.8144 48.6154 93.5322 48.7915 93.1875 48.9317C92.8428 49.0718 92.43 49.1419 91.9489 49.1419ZM92.3182 47.7783C92.7879 47.7783 93.1894 47.6855 93.5228 47.4999C93.8599 47.3143 94.1156 47.0718 94.2898 46.7726C94.4678 46.4696 94.5569 46.1457 94.5569 45.801V44.676C94.4963 44.7366 94.3788 44.7934 94.2046 44.8465C94.0341 44.8957 93.8391 44.9393 93.6194 44.9771C93.3997 45.0112 93.1857 45.0434 92.9773 45.0737C92.769 45.1002 92.5947 45.123 92.4546 45.1419C92.125 45.1836 91.8239 45.2537 91.5512 45.3521C91.2822 45.4506 91.0663 45.5927 90.9035 45.7783C90.7444 45.9601 90.6648 46.2025 90.6648 46.5055C90.6648 46.926 90.8201 47.2442 91.1307 47.4601C91.4413 47.6722 91.8372 47.7783 92.3182 47.7783ZM100.217 43.7669V48.9487H98.5185V40.2215H100.149V41.6419H100.257C100.458 41.1798 100.772 40.8086 101.2 40.5283C101.632 40.248 102.176 40.1078 102.831 40.1078C103.426 40.1078 103.947 40.2328 104.394 40.4828C104.84 40.729 105.187 41.0965 105.433 41.5851C105.679 42.0737 105.803 42.6779 105.803 43.3976V48.9487H104.104V43.6021C104.104 42.9696 103.939 42.4752 103.609 42.1192C103.28 41.7593 102.827 41.5794 102.251 41.5794C101.858 41.5794 101.507 41.6646 101.2 41.8351C100.897 42.0055 100.657 42.2555 100.479 42.5851C100.304 42.9109 100.217 43.3048 100.217 43.7669ZM111.757 49.1249C110.912 49.1249 110.185 48.9336 109.575 48.551C108.969 48.1646 108.503 47.6324 108.178 46.9544C107.852 46.2764 107.689 45.4999 107.689 44.6249C107.689 43.7385 107.856 42.9563 108.189 42.2783C108.522 41.5965 108.992 41.0643 109.598 40.6817C110.204 40.2991 110.918 40.1078 111.74 40.1078C112.403 40.1078 112.994 40.2309 113.513 40.4771C114.032 40.7196 114.45 41.0605 114.769 41.4999C115.09 41.9393 115.282 42.4525 115.342 43.0396H113.689C113.598 42.6305 113.39 42.2783 113.064 41.9828C112.742 41.6874 112.31 41.5396 111.769 41.5396C111.295 41.5396 110.88 41.6646 110.524 41.9146C110.172 42.1609 109.897 42.5131 109.7 42.9715C109.503 43.426 109.405 43.9639 109.405 44.5851C109.405 45.2215 109.501 45.7707 109.695 46.2328C109.888 46.6949 110.161 47.0529 110.513 47.3067C110.869 47.5605 111.287 47.6874 111.769 47.6874C112.09 47.6874 112.382 47.6287 112.644 47.5112C112.909 47.39 113.13 47.2177 113.308 46.9942C113.49 46.7707 113.617 46.5018 113.689 46.1874H115.342C115.282 46.7518 115.098 47.2555 114.791 47.6987C114.484 48.1419 114.073 48.4904 113.558 48.7442C113.047 48.998 112.447 49.1249 111.757 49.1249ZM120.92 49.1249C120.061 49.1249 119.32 48.9412 118.699 48.5737C118.081 48.2025 117.604 47.6817 117.267 47.0112C116.934 46.337 116.767 45.5472 116.767 44.6419C116.767 43.748 116.934 42.9601 117.267 42.2783C117.604 41.5965 118.074 41.0643 118.676 40.6817C119.282 40.2991 119.991 40.1078 120.801 40.1078C121.294 40.1078 121.771 40.1893 122.233 40.3521C122.695 40.515 123.11 40.7707 123.477 41.1192C123.845 41.4677 124.135 41.9203 124.347 42.4771C124.559 43.0302 124.665 43.7025 124.665 44.4942V45.0965H117.727V43.8237H123C123 43.3768 122.909 42.9809 122.727 42.6362C122.545 42.2877 122.29 42.0131 121.96 41.8124C121.635 41.6116 121.252 41.5112 120.813 41.5112C120.335 41.5112 119.919 41.6287 119.563 41.8635C119.21 42.0946 118.938 42.3976 118.744 42.7726C118.555 43.1438 118.46 43.5472 118.46 43.9828V44.9771C118.46 45.5605 118.563 46.0567 118.767 46.4658C118.975 46.8749 119.265 47.1874 119.636 47.4033C120.008 47.6154 120.441 47.7215 120.938 47.7215C121.26 47.7215 121.553 47.676 121.818 47.5851C122.083 47.4904 122.313 47.3502 122.506 47.1646C122.699 46.979 122.847 46.7499 122.949 46.4771L124.557 46.7669C124.428 47.2404 124.197 47.6552 123.864 48.0112C123.534 48.3635 123.119 48.6381 122.619 48.8351C122.123 49.0283 121.557 49.1249 120.92 49.1249ZM127.669 49.0567C127.358 49.0567 127.091 48.9468 126.868 48.7271C126.644 48.5037 126.533 48.2347 126.533 47.9203C126.533 47.6097 126.644 47.3446 126.868 47.1249C127.091 46.9014 127.358 46.7896 127.669 46.7896C127.98 46.7896 128.247 46.9014 128.47 47.1249C128.694 47.3446 128.805 47.6097 128.805 47.9203C128.805 48.1287 128.752 48.3199 128.646 48.4942C128.544 48.6646 128.408 48.801 128.237 48.9033C128.067 49.0055 127.877 49.0567 127.669 49.0567Z" fill="black"/>
</svg>
