<svg width="170" height="70" viewBox="0 0 170 70" fill="none" xmlns="http://www.w3.org/2000/svg">
<rect width="170" height="70" rx="10" fill="white"/>
<path d="M60.1548 30.9487V19.3124H61.9104V29.4374H67.1832V30.9487H60.1548ZM72.811 31.1249C71.9512 31.1249 71.2106 30.9412 70.5894 30.5737C69.972 30.2025 69.4947 29.6817 69.1576 29.0112C68.8243 28.337 68.6576 27.5472 68.6576 26.6419C68.6576 25.748 68.8243 24.9601 69.1576 24.2783C69.4947 23.5965 69.9644 23.0643 70.5667 22.6817C71.1727 22.2991 71.8811 22.1078 72.6917 22.1078C73.1841 22.1078 73.6614 22.1893 74.1235 22.3521C74.5856 22.515 75.0004 22.7707 75.3678 23.1192C75.7352 23.4677 76.025 23.9203 76.2371 24.4771C76.4493 25.0302 76.5553 25.7025 76.5553 26.4942V27.0965H69.6178V25.8237H74.8905C74.8905 25.3768 74.7996 24.9809 74.6178 24.6362C74.436 24.2877 74.1803 24.0131 73.8508 23.8124C73.525 23.6116 73.1424 23.5112 72.703 23.5112C72.2258 23.5112 71.8091 23.6287 71.453 23.8635C71.1008 24.0946 70.828 24.3976 70.6349 24.7726C70.4455 25.1438 70.3508 25.5472 70.3508 25.9828V26.9771C70.3508 27.5605 70.453 28.0567 70.6576 28.4658C70.8659 28.8749 71.1557 29.1874 71.5269 29.4033C71.8981 29.6154 72.3318 29.7215 72.828 29.7215C73.15 29.7215 73.4436 29.676 73.7087 29.5851C73.9739 29.4904 74.203 29.3502 74.3962 29.1646C74.5894 28.979 74.7371 28.7499 74.8394 28.4771L76.4474 28.7669C76.3186 29.2404 76.0875 29.6552 75.7542 30.0112C75.4246 30.3635 75.0099 30.6381 74.5099 30.8351C74.0137 31.0283 73.4474 31.1249 72.811 31.1249ZM82.0994 34.4033C81.4062 34.4033 80.8096 34.3124 80.3096 34.1305C79.8134 33.9487 79.4081 33.7082 79.0937 33.409C78.7793 33.1097 78.5444 32.7821 78.3891 32.426L79.8494 31.8237C79.9516 31.9904 80.088 32.1665 80.2584 32.3521C80.4327 32.5415 80.6675 32.7025 80.963 32.8351C81.2622 32.9677 81.6467 33.034 82.1164 33.034C82.7603 33.034 83.2925 32.8768 83.713 32.5624C84.1334 32.2518 84.3437 31.7555 84.3437 31.0737V29.3578H84.2357C84.1334 29.5434 83.9857 29.7499 83.7925 29.9771C83.6031 30.2044 83.3418 30.4014 83.0084 30.568C82.6751 30.7347 82.2414 30.818 81.7073 30.818C81.0179 30.818 80.3967 30.6571 79.8437 30.3351C79.2944 30.0093 78.8588 29.5302 78.5369 28.8976C78.2187 28.2612 78.0596 27.479 78.0596 26.551C78.0596 25.623 78.2168 24.8275 78.5312 24.1646C78.8494 23.5018 79.285 22.9942 79.838 22.6419C80.391 22.2859 81.0179 22.1078 81.7187 22.1078C82.2603 22.1078 82.6978 22.1987 83.0312 22.3805C83.3645 22.5586 83.624 22.7669 83.8096 23.0055C83.999 23.2442 84.1448 23.4544 84.2471 23.6362H84.3721V22.2215H86.0369V31.1419C86.0369 31.8919 85.8626 32.5074 85.5141 32.9885C85.1656 33.4696 84.6941 33.8256 84.0994 34.0567C83.5084 34.2877 82.8418 34.4033 82.0994 34.4033ZM82.0823 29.409C82.5709 29.409 82.9838 29.2953 83.3209 29.068C83.6619 28.837 83.9194 28.5074 84.0937 28.0794C84.2717 27.6476 84.3607 27.1305 84.3607 26.5283C84.3607 25.9412 84.2736 25.4241 84.0994 24.9771C83.9251 24.5302 83.6694 24.1817 83.3323 23.9317C82.9952 23.6779 82.5785 23.551 82.0823 23.551C81.5709 23.551 81.1448 23.6836 80.8039 23.9487C80.463 24.2101 80.2054 24.5662 80.0312 25.0169C79.8607 25.4677 79.7755 25.9715 79.7755 26.5283C79.7755 27.1002 79.8626 27.6021 80.0369 28.034C80.2111 28.4658 80.4687 28.8029 80.8096 29.0453C81.1543 29.2877 81.5785 29.409 82.0823 29.409ZM90.855 31.1419C90.302 31.1419 89.802 31.0396 89.355 30.8351C88.9081 30.6268 88.5539 30.3256 88.2925 29.9317C88.035 29.5377 87.9062 29.0548 87.9062 28.4828C87.9062 27.9904 88.0009 27.5851 88.1903 27.2669C88.3797 26.9487 88.6353 26.6968 88.9573 26.5112C89.2793 26.3256 89.6391 26.1855 90.0369 26.0908C90.4346 25.9961 90.8399 25.9241 91.2528 25.8749C91.7755 25.8143 92.1997 25.765 92.5255 25.7271C92.8512 25.6855 93.088 25.6192 93.2357 25.5283C93.3834 25.4374 93.4573 25.2896 93.4573 25.0851V25.0453C93.4573 24.5491 93.3172 24.1646 93.0369 23.8919C92.7603 23.6192 92.3475 23.4828 91.7982 23.4828C91.2262 23.4828 90.7755 23.6097 90.4459 23.8635C90.1202 24.1135 89.8948 24.3919 89.7698 24.6987L88.1732 24.3351C88.3626 23.8048 88.6391 23.3768 89.0028 23.051C89.3702 22.7215 89.7925 22.4828 90.2698 22.3351C90.7471 22.1836 91.249 22.1078 91.7755 22.1078C92.124 22.1078 92.4933 22.1495 92.8834 22.2328C93.2774 22.3124 93.6448 22.4601 93.9857 22.676C94.3304 22.8919 94.6126 23.2006 94.8323 23.6021C95.052 23.9999 95.1619 24.5169 95.1619 25.1533V30.9487H93.5028V29.7555H93.4346C93.3247 29.9752 93.16 30.1912 92.9403 30.4033C92.7206 30.6154 92.4384 30.7915 92.0937 30.9317C91.749 31.0718 91.3361 31.1419 90.855 31.1419ZM91.2244 29.7783C91.6941 29.7783 92.0956 29.6855 92.4289 29.4999C92.766 29.3143 93.0217 29.0718 93.1959 28.7726C93.374 28.4696 93.463 28.1457 93.463 27.801V26.676C93.4024 26.7366 93.285 26.7934 93.1107 26.8465C92.9403 26.8957 92.7452 26.9393 92.5255 26.9771C92.3058 27.0112 92.0918 27.0434 91.8834 27.0737C91.6751 27.1002 91.5009 27.123 91.3607 27.1419C91.0312 27.1836 90.73 27.2537 90.4573 27.3521C90.1884 27.4506 89.9725 27.5927 89.8096 27.7783C89.6505 27.9601 89.5709 28.2025 89.5709 28.5055C89.5709 28.926 89.7262 29.2442 90.0369 29.4601C90.3475 29.6722 90.7433 29.7783 91.2244 29.7783ZM99.1235 19.3124V30.9487H97.4246V19.3124H99.1235ZM103.108 19.3124V30.9487H101.409V19.3124H103.108ZM106.467 34.2215C106.213 34.2215 105.982 34.2006 105.774 34.159C105.566 34.1211 105.41 34.0794 105.308 34.034L105.717 32.6419C106.028 32.7252 106.304 32.7612 106.547 32.7499C106.789 32.7385 107.003 32.6476 107.189 32.4771C107.378 32.3067 107.545 32.0283 107.689 31.6419L107.899 31.0624L104.706 22.2215H106.524L108.734 28.9942H108.825L111.035 22.2215H112.859L109.263 32.1135C109.096 32.568 108.884 32.9525 108.626 33.2669C108.369 33.5851 108.062 33.8237 107.706 33.9828C107.35 34.1419 106.937 34.2215 106.467 34.2215ZM119.844 19.3124L123.082 28.7896H123.213L126.452 19.3124H128.349L124.162 30.9487H122.133L117.946 19.3124H119.844ZM131.574 31.1419C131.021 31.1419 130.521 31.0396 130.074 30.8351C129.627 30.6268 129.273 30.3256 129.011 29.9317C128.754 29.5377 128.625 29.0548 128.625 28.4828C128.625 27.9904 128.72 27.5851 128.909 27.2669C129.098 26.9487 129.354 26.6968 129.676 26.5112C129.998 26.3256 130.358 26.1855 130.756 26.0908C131.153 25.9961 131.559 25.9241 131.972 25.8749C132.494 25.8143 132.918 25.765 133.244 25.7271C133.57 25.6855 133.807 25.6192 133.954 25.5283C134.102 25.4374 134.176 25.2896 134.176 25.0851V25.0453C134.176 24.5491 134.036 24.1646 133.756 23.8919C133.479 23.6192 133.066 23.4828 132.517 23.4828C131.945 23.4828 131.494 23.6097 131.165 23.8635C130.839 24.1135 130.614 24.3919 130.489 24.6987L128.892 24.3351C129.081 23.8048 129.358 23.3768 129.722 23.051C130.089 22.7215 130.511 22.4828 130.989 22.3351C131.466 22.1836 131.968 22.1078 132.494 22.1078C132.843 22.1078 133.212 22.1495 133.602 22.2328C133.996 22.3124 134.364 22.4601 134.704 22.676C135.049 22.8919 135.331 23.2006 135.551 23.6021C135.771 23.9999 135.881 24.5169 135.881 25.1533V30.9487H134.222V29.7555H134.153C134.043 29.9752 133.879 30.1912 133.659 30.4033C133.439 30.6154 133.157 30.7915 132.812 30.9317C132.468 31.0718 132.055 31.1419 131.574 31.1419ZM131.943 29.7783C132.413 29.7783 132.814 29.6855 133.148 29.4999C133.485 29.3143 133.74 29.0718 133.915 28.7726C134.093 28.4696 134.182 28.1457 134.182 27.801V26.676C134.121 26.7366 134.004 26.7934 133.829 26.8465C133.659 26.8957 133.464 26.9393 133.244 26.9771C133.025 27.0112 132.811 27.0434 132.602 27.0737C132.394 27.1002 132.22 27.123 132.079 27.1419C131.75 27.1836 131.449 27.2537 131.176 27.3521C130.907 27.4506 130.691 27.5927 130.528 27.7783C130.369 27.9601 130.29 28.2025 130.29 28.5055C130.29 28.926 130.445 29.2442 130.756 29.4601C131.066 29.6722 131.462 29.7783 131.943 29.7783ZM139.842 19.3124V30.9487H138.143V19.3124H139.842ZM142.128 30.9487V22.2215H143.827V30.9487H142.128ZM142.986 20.8749C142.69 20.8749 142.436 20.7764 142.224 20.5794C142.016 20.3787 141.912 20.14 141.912 19.8635C141.912 19.5832 142.016 19.3446 142.224 19.1476C142.436 18.9468 142.69 18.8465 142.986 18.8465C143.281 18.8465 143.533 18.9468 143.741 19.1476C143.954 19.3446 144.06 19.5832 144.06 19.8635C144.06 20.14 143.954 20.3787 143.741 20.5794C143.533 20.7764 143.281 20.8749 142.986 20.8749ZM149.379 31.1192C148.675 31.1192 148.046 30.9393 147.493 30.5794C146.944 30.2158 146.512 29.6987 146.197 29.0283C145.887 28.354 145.731 27.5453 145.731 26.6021C145.731 25.659 145.889 24.8521 146.203 24.1817C146.521 23.5112 146.957 22.998 147.51 22.6419C148.063 22.2859 148.69 22.1078 149.391 22.1078C149.932 22.1078 150.368 22.1987 150.697 22.3805C151.031 22.5586 151.288 22.7669 151.47 23.0055C151.656 23.2442 151.8 23.4544 151.902 23.6362H152.004V19.3124H153.703V30.9487H152.044V29.5908H151.902C151.8 29.7764 151.652 29.9885 151.459 30.2271C151.269 30.4658 151.008 30.6741 150.675 30.8521C150.341 31.0302 149.909 31.1192 149.379 31.1192ZM149.754 29.6703C150.243 29.6703 150.656 29.5415 150.993 29.284C151.334 29.0226 151.591 28.6609 151.766 28.1987C151.944 27.7366 152.033 27.1987 152.033 26.5851C152.033 25.979 151.945 25.4487 151.771 24.9942C151.597 24.5396 151.341 24.1855 151.004 23.9317C150.667 23.6779 150.25 23.551 149.754 23.551C149.243 23.551 148.817 23.6836 148.476 23.9487C148.135 24.2139 147.877 24.5756 147.703 25.034C147.533 25.4923 147.447 26.0093 147.447 26.5851C147.447 27.1684 147.534 27.693 147.709 28.159C147.883 28.6249 148.141 28.9942 148.481 29.2669C148.826 29.5359 149.25 29.6703 149.754 29.6703ZM62.5582 50.1419C62.0051 50.1419 61.5051 50.0396 61.0582 49.8351C60.6112 49.6268 60.257 49.3256 59.9957 48.9317C59.7381 48.5377 59.6093 48.0548 59.6093 47.4828C59.6093 46.9904 59.704 46.5851 59.8934 46.2669C60.0828 45.9487 60.3385 45.6968 60.6604 45.5112C60.9824 45.3256 61.3423 45.1855 61.74 45.0908C62.1377 44.9961 62.543 44.9241 62.9559 44.8749C63.4786 44.8143 63.9029 44.765 64.2286 44.7271C64.5544 44.6855 64.7911 44.6192 64.9388 44.5283C65.0866 44.4374 65.1604 44.2896 65.1604 44.0851V44.0453C65.1604 43.5491 65.0203 43.1646 64.74 42.8919C64.4635 42.6192 64.0506 42.4828 63.5013 42.4828C62.9294 42.4828 62.4786 42.6097 62.1491 42.8635C61.8233 43.1135 61.5979 43.3919 61.4729 43.6987L59.8763 43.3351C60.0657 42.8048 60.3423 42.3768 60.7059 42.051C61.0733 41.7215 61.4957 41.4828 61.9729 41.3351C62.4502 41.1836 62.9521 41.1078 63.4786 41.1078C63.8271 41.1078 64.1964 41.1495 64.5866 41.2328C64.9805 41.3124 65.3479 41.4601 65.6888 41.676C66.0335 41.8919 66.3157 42.2006 66.5354 42.6021C66.7551 42.9999 66.865 43.5169 66.865 44.1533V49.9487H65.2059V48.7555H65.1377C65.0279 48.9752 64.8631 49.1912 64.6434 49.4033C64.4237 49.6154 64.1415 49.7915 63.7968 49.9317C63.4521 50.0718 63.0392 50.1419 62.5582 50.1419ZM62.9275 48.7783C63.3972 48.7783 63.7987 48.6855 64.132 48.4999C64.4691 48.3143 64.7248 48.0718 64.8991 47.7726C65.0771 47.4696 65.1661 47.1457 65.1661 46.801V45.676C65.1055 45.7366 64.9881 45.7934 64.8138 45.8465C64.6434 45.8957 64.4483 45.9393 64.2286 45.9771C64.0089 46.0112 63.7949 46.0434 63.5866 46.0737C63.3782 46.1002 63.204 46.123 63.0638 46.1419C62.7343 46.1836 62.4332 46.2537 62.1604 46.3521C61.8915 46.4506 61.6756 46.5927 61.5127 46.7783C61.3536 46.9601 61.2741 47.2025 61.2741 47.5055C61.2741 47.926 61.4294 48.2442 61.74 48.4601C62.0506 48.6722 62.4464 48.7783 62.9275 48.7783ZM70.8266 44.7669V49.9487H69.1278V41.2215H70.7584V42.6419H70.8664C71.0672 42.1798 71.3816 41.8086 71.8096 41.5283C72.2414 41.248 72.785 41.1078 73.4403 41.1078C74.035 41.1078 74.5558 41.2328 75.0028 41.4828C75.4497 41.729 75.7963 42.0965 76.0425 42.5851C76.2887 43.0737 76.4119 43.6779 76.4119 44.3976V49.9487H74.713V44.6021C74.713 43.9696 74.5482 43.4752 74.2187 43.1192C73.8891 42.7593 73.4365 42.5794 72.8607 42.5794C72.4668 42.5794 72.1164 42.6646 71.8096 42.8351C71.5066 43.0055 71.266 43.2555 71.088 43.5851C70.9137 43.9109 70.8266 44.3048 70.8266 44.7669ZM81.9573 50.1192C81.2528 50.1192 80.624 49.9393 80.0709 49.5794C79.5217 49.2158 79.0899 48.6987 78.7755 48.0283C78.4649 47.354 78.3096 46.5453 78.3096 45.6021C78.3096 44.659 78.4668 43.8521 78.7812 43.1817C79.0994 42.5112 79.535 41.998 80.088 41.6419C80.641 41.2859 81.2679 41.1078 81.9687 41.1078C82.5103 41.1078 82.9459 41.1987 83.2755 41.3805C83.6088 41.5586 83.8664 41.7669 84.0482 42.0055C84.2338 42.2442 84.3778 42.4544 84.48 42.6362H84.5823V38.3124H86.2812V49.9487H84.6221V48.5908H84.48C84.3778 48.7764 84.23 48.9885 84.0369 49.2271C83.8475 49.4658 83.5861 49.6741 83.2528 49.8521C82.9194 50.0302 82.4876 50.1192 81.9573 50.1192ZM82.3323 48.6703C82.8209 48.6703 83.2338 48.5415 83.5709 48.284C83.9119 48.0226 84.1694 47.6609 84.3437 47.1987C84.5217 46.7366 84.6107 46.1987 84.6107 45.5851C84.6107 44.979 84.5236 44.4487 84.3494 43.9942C84.1751 43.5396 83.9194 43.1855 83.5823 42.9317C83.2452 42.6779 82.8285 42.551 82.3323 42.551C81.8209 42.551 81.3948 42.6836 81.0539 42.9487C80.713 43.2139 80.4554 43.5756 80.2812 44.034C80.1107 44.4923 80.0255 45.0093 80.0255 45.5851C80.0255 46.1684 80.1126 46.693 80.2869 47.159C80.4611 47.6249 80.7187 47.9942 81.0596 48.2669C81.4043 48.5359 81.8285 48.6703 82.3323 48.6703ZM93.0766 49.9487V38.3124H100.372V39.8237H94.8323V43.3692H99.9914V44.8749H94.8323V48.4374H100.44V49.9487H93.0766ZM105.121 50.1419C104.568 50.1419 104.068 50.0396 103.621 49.8351C103.174 49.6268 102.82 49.3256 102.558 48.9317C102.301 48.5377 102.172 48.0548 102.172 47.4828C102.172 46.9904 102.266 46.5851 102.456 46.2669C102.645 45.9487 102.901 45.6968 103.223 45.5112C103.545 45.3256 103.905 45.1855 104.302 45.0908C104.7 44.9961 105.106 44.9241 105.518 44.8749C106.041 44.8143 106.465 44.765 106.791 44.7271C107.117 44.6855 107.354 44.6192 107.501 44.5283C107.649 44.4374 107.723 44.2896 107.723 44.0851V44.0453C107.723 43.5491 107.583 43.1646 107.302 42.8919C107.026 42.6192 106.613 42.4828 106.064 42.4828C105.492 42.4828 105.041 42.6097 104.712 42.8635C104.386 43.1135 104.16 43.3919 104.035 43.6987L102.439 43.3351C102.628 42.8048 102.905 42.3768 103.268 42.051C103.636 41.7215 104.058 41.4828 104.535 41.3351C105.013 41.1836 105.515 41.1078 106.041 41.1078C106.39 41.1078 106.759 41.1495 107.149 41.2328C107.543 41.3124 107.91 41.4601 108.251 41.676C108.596 41.8919 108.878 42.2006 109.098 42.6021C109.318 42.9999 109.427 43.5169 109.427 44.1533V49.9487H107.768V48.7555H107.7C107.59 48.9752 107.426 49.1912 107.206 49.4033C106.986 49.6154 106.704 49.7915 106.359 49.9317C106.015 50.0718 105.602 50.1419 105.121 50.1419ZM105.49 48.7783C105.96 48.7783 106.361 48.6855 106.695 48.4999C107.032 48.3143 107.287 48.0718 107.462 47.7726C107.64 47.4696 107.729 47.1457 107.729 46.801V45.676C107.668 45.7366 107.551 45.7934 107.376 45.8465C107.206 45.8957 107.011 45.9393 106.791 45.9771C106.571 46.0112 106.357 46.0434 106.149 46.0737C105.941 46.1002 105.766 46.123 105.626 46.1419C105.297 46.1836 104.996 46.2537 104.723 46.3521C104.454 46.4506 104.238 46.5927 104.075 46.7783C103.916 46.9601 103.837 47.2025 103.837 47.5055C103.837 47.926 103.992 48.2442 104.302 48.4601C104.613 48.6722 105.009 48.7783 105.49 48.7783ZM118.23 43.3521L116.69 43.6249C116.626 43.4279 116.524 43.2404 116.383 43.0624C116.247 42.8843 116.061 42.7385 115.827 42.6249C115.592 42.5112 115.298 42.4544 114.946 42.4544C114.465 42.4544 114.063 42.5624 113.741 42.7783C113.419 42.9904 113.258 43.265 113.258 43.6021C113.258 43.8938 113.366 44.1287 113.582 44.3067C113.798 44.4847 114.147 44.6305 114.628 44.7442L116.014 45.0624C116.817 45.248 117.416 45.534 117.81 45.9203C118.204 46.3067 118.4 46.8086 118.4 47.426C118.4 47.9487 118.249 48.4146 117.946 48.8237C117.647 49.229 117.228 49.5472 116.69 49.7783C116.156 50.0093 115.537 50.1249 114.832 50.1249C113.855 50.1249 113.058 49.9165 112.44 49.4999C111.823 49.0794 111.444 48.4828 111.304 47.7101L112.946 47.4601C113.048 47.8881 113.258 48.212 113.577 48.4317C113.895 48.6476 114.31 48.7555 114.821 48.7555C115.378 48.7555 115.823 48.64 116.156 48.409C116.49 48.1741 116.656 47.8881 116.656 47.551C116.656 47.2783 116.554 47.0491 116.349 46.8635C116.149 46.6779 115.84 46.5377 115.423 46.443L113.946 46.1192C113.132 45.9336 112.529 45.6381 112.139 45.2328C111.753 44.8275 111.56 44.3143 111.56 43.693C111.56 43.1779 111.704 42.7271 111.991 42.3408C112.279 41.9544 112.677 41.6533 113.185 41.4374C113.692 41.2177 114.274 41.1078 114.929 41.1078C115.872 41.1078 116.615 41.3124 117.156 41.7215C117.698 42.1268 118.056 42.6703 118.23 43.3521ZM121.342 53.2215C121.088 53.2215 120.857 53.2006 120.649 53.159C120.441 53.1211 120.285 53.0794 120.183 53.034L120.592 51.6419C120.903 51.7252 121.179 51.7612 121.422 51.7499C121.664 51.7385 121.878 51.6476 122.064 51.4771C122.253 51.3067 122.42 51.0283 122.564 50.6419L122.774 50.0624L119.581 41.2215H121.399L123.609 47.9942H123.7L125.91 41.2215H127.734L124.138 51.1135C123.971 51.568 123.759 51.9525 123.501 52.2669C123.244 52.5851 122.937 52.8237 122.581 52.9828C122.225 53.1419 121.812 53.2215 121.342 53.2215Z" fill="black"/>
<g clip-path="url(#clip0_10_714)">
<path d="M17.5859 40.3687L13.0431 44.9115C12.9667 44.9843 12.9953 45.116 13.1018 45.1476L18.573 46.8096C19.3492 47.0457 19.954 47.6505 20.1901 48.4266L21.8521 53.8979C21.8836 54.0044 22.0154 54.033 22.0882 53.9566L28.1666 47.8782C23.6693 46.7611 19.9565 43.9573 17.5859 40.3687Z" fill="#54BD95"/>
<path d="M51.9569 44.9115L47.4141 40.3687C45.0604 43.9317 41.3591 46.754 36.8333 47.8783L42.9116 53.9566C42.9844 54.033 43.1162 54.0045 43.1477 53.898L44.8097 48.4267C45.0459 47.6505 45.6507 47.0457 46.4269 46.8097L51.8981 45.1477C52.0049 45.1159 52.0331 44.9841 51.9569 44.9115Z" fill="#54BD95"/>
<path d="M48.0594 30.5595C48.0594 21.9805 41.0799 15.0002 32.5002 15.0002C23.9204 15.0002 16.9409 21.9805 16.9409 30.5595C16.9409 38.3165 22.6522 44.7816 30.1092 45.9359C39.5551 47.4053 48.0594 40.053 48.0594 30.5595ZM20.3716 34.3513C17.8056 26.1475 23.9827 17.8543 32.5002 17.8543C42.015 17.8543 48.304 28.0803 43.6659 36.6203C38.3115 46.4428 23.7416 45.0705 20.3716 34.3513Z" fill="#54BD95"/>
<path d="M32.5001 20.1394C26.7546 20.1394 22.0792 24.814 22.0792 30.5595C22.0792 39.0124 31.6629 43.942 38.5259 39.0562C39.9963 38.0125 41.1937 36.5857 41.9642 34.9187C45.1658 28.0262 40.062 20.1394 32.5001 20.1394ZM37.7596 29.0978C37.6295 29.1944 31.2986 33.8932 31.2623 33.9202C30.805 34.261 30.1545 34.2153 29.748 33.7846C26.84 30.6855 27.0726 30.933 27.0028 30.8597C26.5142 30.3394 26.6162 29.4977 27.2275 29.1109C27.2283 29.1101 27.2291 29.1093 27.2298 29.1093C27.6838 28.8244 28.2894 28.8907 28.6695 29.2959C29.2844 29.9513 28.8705 29.5102 30.7176 31.4782C30.9168 31.3297 33.2597 29.5916 36.4829 27.1997C36.9895 26.8234 37.7055 26.9293 38.081 27.4358C38.4251 27.8977 38.4239 28.6056 37.7596 29.0978Z" fill="#54BD95"/>
</g>
<defs>
<clipPath id="clip0_10_714">
<rect width="39" height="39" fill="white" transform="translate(13 15)"/>
</clipPath>
</defs>
</svg>
