<svg width="46" height="46" viewBox="0 0 46 46" fill="none" xmlns="http://www.w3.org/2000/svg">
<path d="M39.4185 13.0514L28.7442 2.37707C28.6551 2.28487 28.5479 2.21196 28.4295 2.16287C28.311 2.11378 28.1837 2.08955 28.0555 2.09168H10.6205C9.58716 2.09168 8.59617 2.50216 7.86551 3.23282C7.13485 3.96349 6.72437 4.95448 6.72437 5.98779V39.2995C6.72437 40.3328 7.13485 41.3238 7.86551 42.0544C8.59617 42.7851 9.58716 43.1956 10.6205 43.1956H35.8078C36.8411 43.1956 37.8321 42.7851 38.5628 42.0544C39.2934 41.3238 39.7039 40.3328 39.7039 39.2995V13.7401C39.7031 13.4819 39.6006 13.2345 39.4185 13.0514ZM36.3786 12.766H30.4906C30.1031 12.766 29.7315 12.6121 29.4575 12.3381C29.1835 12.0641 29.0296 11.6925 29.0296 11.305V5.41701L36.3786 12.766ZM35.8078 41.2475H10.6234C10.1067 41.2475 9.61124 41.0423 9.24591 40.677C8.88058 40.3116 8.67534 39.8161 8.67534 39.2995V5.98779C8.67534 5.47113 8.88058 4.97564 9.24591 4.61031C9.61124 4.24498 10.1067 4.03973 10.6234 4.03973H27.0844V11.305C27.0844 12.2091 27.4436 13.0763 28.0829 13.7156C28.7223 14.3549 29.5894 14.7141 30.4935 14.7141H37.7588V39.2995C37.7588 39.5555 37.7083 39.8091 37.6102 40.0456C37.5121 40.2822 37.3684 40.4971 37.1872 40.678C37.006 40.8589 36.7909 41.0024 36.5542 41.1001C36.3175 41.1978 36.0639 41.2479 35.8078 41.2475Z" fill="black"/>
<path d="M19.303 17.0917C20.0832 17.0917 20.8459 16.8603 21.4946 16.4269C22.1433 15.9934 22.6489 15.3773 22.9475 14.6565C23.2461 13.9357 23.3242 13.1425 23.172 12.3773C23.0198 11.6121 22.644 10.9092 22.0924 10.3575C21.5407 9.8058 20.8378 9.4301 20.0726 9.27789C19.3073 9.12568 18.5142 9.2038 17.7933 9.50237C17.0725 9.80094 16.4564 10.3066 16.023 10.9553C15.5895 11.604 15.3582 12.3667 15.3582 13.1469C15.3594 14.1927 15.7755 15.1954 16.515 15.9349C17.2545 16.6744 18.2571 17.0904 19.303 17.0917ZM19.303 11.1501C19.6979 11.1501 20.0839 11.2672 20.4123 11.4867C20.7407 11.7061 20.9966 12.0179 21.1477 12.3828C21.2988 12.7476 21.3384 13.1491 21.2613 13.5364C21.1843 13.9238 20.9941 14.2796 20.7149 14.5588C20.4356 14.8381 20.0798 15.0282 19.6925 15.1053C19.3052 15.1823 18.9037 15.1428 18.5388 14.9917C18.174 14.8405 17.8621 14.5846 17.6427 14.2562C17.4233 13.9279 17.3062 13.5418 17.3062 13.1469C17.307 12.6176 17.5176 12.1101 17.8919 11.7358C18.2662 11.3615 18.7736 11.1509 19.303 11.1501Z" fill="black"/>
<path d="M13.5941 24.6404C13.8525 24.6404 14.1002 24.5378 14.2829 24.3551C14.4655 24.1725 14.5682 23.9247 14.5682 23.6664V23.0722C14.5695 22.1153 14.9502 21.1979 15.6269 20.5212C16.3035 19.8445 17.2209 19.4638 18.1779 19.4625H20.4279C21.3849 19.4638 22.3023 19.8445 22.979 20.5212C23.6556 21.1979 24.0364 22.1153 24.0376 23.0722V23.6664C24.0376 23.9247 24.1403 24.1725 24.3229 24.3551C24.5056 24.5378 24.7533 24.6404 25.0117 24.6404C25.27 24.6404 25.5178 24.5378 25.7004 24.3551C25.8831 24.1725 25.9857 23.9247 25.9857 23.6664V23.0722C25.9839 21.5988 25.3978 20.1862 24.3559 19.1443C23.314 18.1024 21.9014 17.5162 20.4279 17.5144H18.1779C16.7044 17.5162 15.2918 18.1024 14.2499 19.1443C13.2081 20.1862 12.6219 21.5988 12.6201 23.0722V23.6664C12.6201 23.9247 12.7227 24.1725 12.9054 24.3551C13.0881 24.5378 13.3358 24.6404 13.5941 24.6404Z" fill="black"/>
<path d="M13.0517 31.7674H24.8715C25.1298 31.7674 25.3775 31.6647 25.5602 31.4821C25.7429 31.2994 25.8455 31.0517 25.8455 30.7933C25.8455 30.535 25.7429 30.2873 25.5602 30.1046C25.3775 29.9219 25.1298 29.8193 24.8715 29.8193H13.0517C12.7933 29.8193 12.5456 29.9219 12.3629 30.1046C12.1803 30.2873 12.0776 30.535 12.0776 30.7933C12.0776 31.0517 12.1803 31.2994 12.3629 31.4821C12.5456 31.6647 12.7933 31.7674 13.0517 31.7674Z" fill="black"/>
<path d="M31.5582 34.9485H13.0517C12.7933 34.9485 12.5456 35.0511 12.3629 35.2338C12.1803 35.4165 12.0776 35.6642 12.0776 35.9225C12.0776 36.1809 12.1803 36.4286 12.3629 36.6113C12.5456 36.7939 12.7933 36.8966 13.0517 36.8966H31.5582C31.8165 36.8966 32.0642 36.7939 32.2469 36.6113C32.4296 36.4286 32.5322 36.1809 32.5322 35.9225C32.5322 35.6642 32.4296 35.4165 32.2469 35.2338C32.0642 35.0511 31.8165 34.9485 31.5582 34.9485Z" fill="black"/>
</svg>
