<svg width="53" height="53" viewBox="0 0 53 53" fill="none" xmlns="http://www.w3.org/2000/svg">
<rect x="2" y="12.3525" width="40" height="40" rx="10" transform="rotate(-15 2 12.3525)" fill="#74C9A9"/>
<g clip-path="url(#clip0_2003_260)">
<path d="M33.0676 21.2578L31.8378 21.6344L31.3356 19.9947C30.3663 16.8301 27.0033 15.044 23.8387 16.0132C20.674 16.9825 18.888 20.3455 19.8572 23.5101L20.3594 25.1499L19.1296 25.5266C18.903 25.596 18.7758 25.8355 18.8452 26.0621L21.9841 36.3106C22.261 37.215 23.2217 37.7251 24.126 37.4481L35.6044 33.9327C36.5087 33.6557 37.0189 32.6951 36.7419 31.7907L33.6031 21.5422C33.5337 21.3156 33.2942 21.1884 33.0676 21.2578ZM29.9488 31.5798C29.997 31.6915 29.9954 31.819 29.9443 31.9297C29.8933 32.0404 29.7972 32.1241 29.6807 32.1598L28.0409 32.662C27.9244 32.6977 27.7979 32.6821 27.6936 32.619C27.5894 32.556 27.5166 32.4513 27.494 32.3316L27.0403 29.9269C26.5268 29.7501 26.1278 29.3437 25.9655 28.8137C25.6885 27.9093 26.1987 26.9487 27.1031 26.6717C28.0074 26.3947 28.9681 26.9049 29.2451 27.8092C29.4074 28.3393 29.3044 28.8994 28.978 29.3335L29.9488 31.5798ZM29.3781 22.3878L22.8191 24.3966L22.3169 22.7568C21.763 20.9485 22.7837 19.0267 24.592 18.4729C26.4003 17.9191 28.3221 18.9397 28.8759 20.748L29.3781 22.3878Z" fill="white"/>
</g>
<defs>
<clipPath id="clip0_2003_260">
<rect width="20.5794" height="20.5794" fill="white" transform="translate(14 19.0266) rotate(-17.0283)"/>
</clipPath>
</defs>
</svg>
