<svg width="78" height="78" viewBox="0 0 78 78" fill="none" xmlns="http://www.w3.org/2000/svg">
<g filter="url(#filter0_d_2002_247)">
<rect x="9" y="5" width="60" height="60" fill="white"/>
</g>
<path d="M38.9654 24.0135C35.3284 24.0135 32.3614 26.9906 32.3614 30.6276C32.3614 32.8509 33.4739 34.8208 35.167 36.019C31.218 37.6014 28.4165 41.4625 28.4165 45.9678C28.4225 46.24 28.5349 46.4991 28.7296 46.6895C28.9243 46.8799 29.1858 46.9866 29.4582 46.9866C29.7305 46.9866 29.992 46.8799 30.1867 46.6895C30.3814 46.4991 30.4938 46.24 30.4998 45.9678C30.4998 41.1865 34.355 37.3333 39.1363 37.3333C40.8053 37.3333 42.3546 37.8091 43.6733 38.6253C43.79 38.6978 43.9199 38.7465 44.0556 38.7687C44.1912 38.791 44.3299 38.7862 44.4637 38.7548C44.5975 38.7234 44.7238 38.6658 44.8353 38.5855C44.9469 38.5052 45.0415 38.4038 45.1137 38.2868C45.186 38.1699 45.2344 38.0398 45.2563 37.9042C45.2783 37.7685 45.2732 37.6297 45.2415 37.496C45.2097 37.3623 45.1519 37.2361 45.0713 37.1248C44.9907 37.0134 44.889 36.9191 44.7719 36.8471C44.1777 36.4794 43.5327 36.1915 42.8676 35.9438C44.506 34.7394 45.5796 32.8066 45.5796 30.6276C45.5796 26.9906 42.6025 24.0135 38.9654 24.0135ZM38.9654 26.0988C41.4766 26.0988 43.4963 28.1165 43.4963 30.6276C43.4963 33.1388 41.4766 35.1483 38.9654 35.1483C36.4543 35.1483 34.4447 33.1388 34.4447 30.6276C34.4447 28.1165 36.4543 26.0988 38.9654 26.0988ZM49.5082 38.6009C49.3389 38.6058 49.1733 38.6518 49.0259 38.7351C48.8784 38.8184 48.7534 38.9365 48.6619 39.079L45.071 44.4603L42.8188 42.9526C42.7046 42.8759 42.5763 42.8224 42.4414 42.7953C42.3065 42.7681 42.1675 42.7679 42.0325 42.7945C41.8975 42.8212 41.7691 42.8743 41.6547 42.9507C41.5402 43.0271 41.4419 43.1254 41.3655 43.2398C41.2891 43.3542 41.236 43.4825 41.2093 43.6175C41.1825 43.7525 41.1827 43.8916 41.2098 44.0265C41.2369 44.1615 41.2904 44.2897 41.3671 44.4039C41.4439 44.5181 41.5424 44.6161 41.6571 44.6922L44.7882 46.7755C44.9022 46.8512 45.0301 46.9037 45.1644 46.9299C45.2988 46.9561 45.437 46.9555 45.5711 46.9283C45.7053 46.9011 45.8327 46.8478 45.9463 46.7713C46.0598 46.6948 46.1571 46.5967 46.2327 46.4826L50.4014 40.2306C50.5101 40.0717 50.5727 39.8859 50.5822 39.6936C50.5917 39.5014 50.5478 39.3102 50.4552 39.1414C50.3627 38.9726 50.2253 38.8328 50.0581 38.7374C49.8909 38.642 49.7006 38.5947 49.5082 38.6009Z" fill="#54BD95"/>
<defs>
<filter id="filter0_d_2002_247" x="0" y="0" width="78" height="78" filterUnits="userSpaceOnUse" color-interpolation-filters="sRGB">
<feFlood flood-opacity="0" result="BackgroundImageFix"/>
<feColorMatrix in="SourceAlpha" type="matrix" values="0 0 0 0 0 0 0 0 0 0 0 0 0 0 0 0 0 0 127 0" result="hardAlpha"/>
<feOffset dy="4"/>
<feGaussianBlur stdDeviation="4.5"/>
<feComposite in2="hardAlpha" operator="out"/>
<feColorMatrix type="matrix" values="0 0 0 0 0 0 0 0 0 0 0 0 0 0 0 0 0 0 0.05 0"/>
<feBlend mode="normal" in2="BackgroundImageFix" result="effect1_dropShadow_2002_247"/>
<feBlend mode="normal" in="SourceGraphic" in2="effect1_dropShadow_2002_247" result="shape"/>
</filter>
</defs>
</svg>
