<svg width="213" height="110" viewBox="0 0 213 110" fill="none" xmlns="http://www.w3.org/2000/svg">
<g filter="url(#filter0_d_10_713)">
<rect x="16" y="12" width="181" height="78" rx="10" fill="white"/>
</g>
<path d="M78.2784 46V34.3636H82.4261C83.3314 34.3636 84.0814 34.5284 84.6761 34.858C85.2708 35.1875 85.7159 35.6383 86.0114 36.2102C86.3068 36.7784 86.4545 37.4186 86.4545 38.1307C86.4545 38.8466 86.3049 39.4905 86.0057 40.0625C85.7102 40.6307 85.2633 41.0814 84.6648 41.4148C84.0701 41.7443 83.322 41.9091 82.4205 41.9091H79.5682V40.4205H82.2614C82.8333 40.4205 83.2973 40.322 83.6534 40.125C84.0095 39.9242 84.2708 39.6515 84.4375 39.3068C84.6042 38.9621 84.6875 38.5701 84.6875 38.1307C84.6875 37.6913 84.6042 37.3011 84.4375 36.9602C84.2708 36.6193 84.0076 36.3523 83.6477 36.1591C83.2917 35.9659 82.822 35.8693 82.2386 35.8693H80.0341V46H78.2784ZM88.3764 46V37.2727H90.0185V38.6591H90.1094C90.2685 38.1894 90.5488 37.8201 90.9503 37.5511C91.3556 37.2784 91.8139 37.142 92.3253 37.142C92.4313 37.142 92.5563 37.1458 92.7003 37.1534C92.848 37.161 92.9635 37.1705 93.0469 37.1818V38.8068C92.9787 38.7879 92.8575 38.767 92.6832 38.7443C92.509 38.7178 92.3348 38.7045 92.1605 38.7045C91.759 38.7045 91.401 38.7898 91.0866 38.9602C90.776 39.1269 90.5298 39.3598 90.348 39.6591C90.1662 39.9545 90.0753 40.2917 90.0753 40.6705V46H88.3764ZM97.8807 46.1761C97.0625 46.1761 96.3485 45.9886 95.7386 45.6136C95.1288 45.2386 94.6553 44.714 94.3182 44.0398C93.9811 43.3655 93.8125 42.5777 93.8125 41.6761C93.8125 40.7708 93.9811 39.9792 94.3182 39.3011C94.6553 38.6231 95.1288 38.0966 95.7386 37.7216C96.3485 37.3466 97.0625 37.1591 97.8807 37.1591C98.6989 37.1591 99.4129 37.3466 100.023 37.7216C100.633 38.0966 101.106 38.6231 101.443 39.3011C101.78 39.9792 101.949 40.7708 101.949 41.6761C101.949 42.5777 101.78 43.3655 101.443 44.0398C101.106 44.714 100.633 45.2386 100.023 45.6136C99.4129 45.9886 98.6989 46.1761 97.8807 46.1761ZM97.8864 44.75C98.4167 44.75 98.8561 44.6098 99.2045 44.3295C99.553 44.0492 99.8106 43.6761 99.9773 43.2102C100.148 42.7443 100.233 42.2311 100.233 41.6705C100.233 41.1136 100.148 40.6023 99.9773 40.1364C99.8106 39.6667 99.553 39.2898 99.2045 39.0057C98.8561 38.7216 98.4167 38.5795 97.8864 38.5795C97.3523 38.5795 96.9091 38.7216 96.5568 39.0057C96.2083 39.2898 95.9489 39.6667 95.7784 40.1364C95.6117 40.6023 95.5284 41.1136 95.5284 41.6705C95.5284 42.2311 95.6117 42.7443 95.7784 43.2102C95.9489 43.6761 96.2083 44.0492 96.5568 44.3295C96.9091 44.6098 97.3523 44.75 97.8864 44.75ZM107.919 37.2727V38.6364H103.152V37.2727H107.919ZM104.43 35.1818H106.129V43.4375C106.129 43.767 106.179 44.0152 106.277 44.1818C106.375 44.3447 106.502 44.4564 106.658 44.517C106.817 44.5739 106.989 44.6023 107.175 44.6023C107.311 44.6023 107.43 44.5928 107.533 44.5739C107.635 44.5549 107.714 44.5398 107.771 44.5284L108.078 45.9318C107.98 45.9697 107.839 46.0076 107.658 46.0455C107.476 46.0871 107.249 46.1098 106.976 46.1136C106.529 46.1212 106.112 46.0417 105.726 45.875C105.339 45.7083 105.027 45.4508 104.788 45.1023C104.55 44.7538 104.43 44.3163 104.43 43.7898V35.1818ZM113.466 46.1761C112.606 46.1761 111.866 45.9924 111.244 45.625C110.627 45.2538 110.15 44.733 109.812 44.0625C109.479 43.3883 109.312 42.5985 109.312 41.6932C109.312 40.7992 109.479 40.0114 109.812 39.3295C110.15 38.6477 110.619 38.1155 111.222 37.733C111.828 37.3504 112.536 37.1591 113.347 37.1591C113.839 37.1591 114.316 37.2405 114.778 37.4034C115.241 37.5663 115.655 37.822 116.023 38.1705C116.39 38.5189 116.68 38.9716 116.892 39.5284C117.104 40.0814 117.21 40.7538 117.21 41.5455V42.1477H110.273V40.875H115.545C115.545 40.428 115.455 40.0322 115.273 39.6875C115.091 39.339 114.835 39.0644 114.506 38.8636C114.18 38.6629 113.797 38.5625 113.358 38.5625C112.881 38.5625 112.464 38.6799 112.108 38.9148C111.756 39.1458 111.483 39.4489 111.29 39.8239C111.1 40.1951 111.006 40.5985 111.006 41.0341V42.0284C111.006 42.6117 111.108 43.108 111.312 43.517C111.521 43.9261 111.811 44.2386 112.182 44.4545C112.553 44.6667 112.987 44.7727 113.483 44.7727C113.805 44.7727 114.098 44.7273 114.364 44.6364C114.629 44.5417 114.858 44.4015 115.051 44.2159C115.244 44.0303 115.392 43.8011 115.494 43.5284L117.102 43.8182C116.973 44.2917 116.742 44.7064 116.409 45.0625C116.08 45.4148 115.665 45.6894 115.165 45.8864C114.669 46.0795 114.102 46.1761 113.466 46.1761ZM122.771 46.1761C121.927 46.1761 121.199 45.9848 120.589 45.6023C119.983 45.2159 119.518 44.6837 119.192 44.0057C118.866 43.3277 118.703 42.5511 118.703 41.6761C118.703 40.7898 118.87 40.0076 119.203 39.3295C119.536 38.6477 120.006 38.1155 120.612 37.733C121.218 37.3504 121.932 37.1591 122.754 37.1591C123.417 37.1591 124.008 37.2822 124.527 37.5284C125.046 37.7708 125.464 38.1117 125.783 38.5511C126.105 38.9905 126.296 39.5038 126.357 40.0909H124.703C124.612 39.6818 124.404 39.3295 124.078 39.0341C123.756 38.7386 123.324 38.5909 122.783 38.5909C122.309 38.5909 121.894 38.7159 121.538 38.9659C121.186 39.2121 120.911 39.5644 120.714 40.0227C120.518 40.4773 120.419 41.0152 120.419 41.6364C120.419 42.2727 120.516 42.822 120.709 43.2841C120.902 43.7462 121.175 44.1042 121.527 44.358C121.883 44.6117 122.302 44.7386 122.783 44.7386C123.105 44.7386 123.396 44.6799 123.658 44.5625C123.923 44.4413 124.144 44.2689 124.322 44.0455C124.504 43.822 124.631 43.553 124.703 43.2386H126.357C126.296 43.803 126.112 44.3068 125.805 44.75C125.499 45.1932 125.088 45.5417 124.572 45.7955C124.061 46.0492 123.461 46.1761 122.771 46.1761ZM132.247 37.2727V38.6364H127.48V37.2727H132.247ZM128.759 35.1818H130.457V43.4375C130.457 43.767 130.507 44.0152 130.605 44.1818C130.704 44.3447 130.83 44.4564 130.986 44.517C131.145 44.5739 131.317 44.6023 131.503 44.6023C131.639 44.6023 131.759 44.5928 131.861 44.5739C131.963 44.5549 132.043 44.5398 132.099 44.5284L132.406 45.9318C132.308 45.9697 132.168 46.0076 131.986 46.0455C131.804 46.0871 131.577 46.1098 131.304 46.1136C130.857 46.1212 130.44 46.0417 130.054 45.875C129.668 45.7083 129.355 45.4508 129.116 45.1023C128.878 44.7538 128.759 44.3163 128.759 43.7898V35.1818ZM137.599 34.3636H139.594L142.634 39.6534H142.759L145.798 34.3636H147.793L143.571 41.4318V46H141.821V41.4318L137.599 34.3636ZM151.553 46.1761C150.734 46.1761 150.02 45.9886 149.411 45.6136C148.801 45.2386 148.327 44.714 147.99 44.0398C147.653 43.3655 147.484 42.5777 147.484 41.6761C147.484 40.7708 147.653 39.9792 147.99 39.3011C148.327 38.6231 148.801 38.0966 149.411 37.7216C150.02 37.3466 150.734 37.1591 151.553 37.1591C152.371 37.1591 153.085 37.3466 153.695 37.7216C154.304 38.0966 154.778 38.6231 155.115 39.3011C155.452 39.9792 155.621 40.7708 155.621 41.6761C155.621 42.5777 155.452 43.3655 155.115 44.0398C154.778 44.714 154.304 45.2386 153.695 45.6136C153.085 45.9886 152.371 46.1761 151.553 46.1761ZM151.558 44.75C152.089 44.75 152.528 44.6098 152.876 44.3295C153.225 44.0492 153.482 43.6761 153.649 43.2102C153.82 42.7443 153.905 42.2311 153.905 41.6705C153.905 41.1136 153.82 40.6023 153.649 40.1364C153.482 39.6667 153.225 39.2898 152.876 39.0057C152.528 38.7216 152.089 38.5795 151.558 38.5795C151.024 38.5795 150.581 38.7216 150.229 39.0057C149.88 39.2898 149.621 39.6667 149.45 40.1364C149.284 40.6023 149.2 41.1136 149.2 41.6705C149.2 42.2311 149.284 42.7443 149.45 43.2102C149.621 43.6761 149.88 44.0492 150.229 44.3295C150.581 44.6098 151.024 44.75 151.558 44.75ZM163.045 42.3807V37.2727H164.75V46H163.08V44.4886H162.989C162.788 44.9545 162.466 45.3428 162.023 45.6534C161.583 45.9602 161.036 46.1136 160.381 46.1136C159.82 46.1136 159.324 45.9905 158.892 45.7443C158.464 45.4943 158.127 45.125 157.881 44.6364C157.638 44.1477 157.517 43.5436 157.517 42.8239V37.2727H159.216V42.6193C159.216 43.214 159.381 43.6875 159.71 44.0398C160.04 44.392 160.468 44.5682 160.994 44.5682C161.313 44.5682 161.629 44.4886 161.943 44.3295C162.261 44.1705 162.525 43.9299 162.733 43.608C162.945 43.286 163.049 42.8769 163.045 42.3807ZM167.033 46V37.2727H168.675V38.6591H168.766C168.925 38.1894 169.205 37.8201 169.607 37.5511C170.012 37.2784 170.47 37.142 170.982 37.142C171.088 37.142 171.213 37.1458 171.357 37.1534C171.504 37.161 171.62 37.1705 171.703 37.1818V38.8068C171.635 38.7879 171.514 38.767 171.339 38.7443C171.165 38.7178 170.991 38.7045 170.817 38.7045C170.415 38.7045 170.057 38.7898 169.743 38.9602C169.432 39.1269 169.186 39.3598 169.004 39.6591C168.822 39.9545 168.732 40.2917 168.732 40.6705V46H167.033ZM78.2784 65V53.3636H80.0341V63.4886H85.3068V65H78.2784ZM90.8494 65.1761C90.0313 65.1761 89.3172 64.9886 88.7074 64.6136C88.0975 64.2386 87.6241 63.714 87.2869 63.0398C86.9498 62.3655 86.7812 61.5777 86.7812 60.6761C86.7812 59.7708 86.9498 58.9792 87.2869 58.3011C87.6241 57.6231 88.0975 57.0966 88.7074 56.7216C89.3172 56.3466 90.0313 56.1591 90.8494 56.1591C91.6676 56.1591 92.3816 56.3466 92.9915 56.7216C93.6013 57.0966 94.0748 57.6231 94.4119 58.3011C94.7491 58.9792 94.9176 59.7708 94.9176 60.6761C94.9176 61.5777 94.7491 62.3655 94.4119 63.0398C94.0748 63.714 93.6013 64.2386 92.9915 64.6136C92.3816 64.9886 91.6676 65.1761 90.8494 65.1761ZM90.8551 63.75C91.3854 63.75 91.8248 63.6098 92.1733 63.3295C92.5218 63.0492 92.7794 62.6761 92.946 62.2102C93.1165 61.7443 93.2017 61.2311 93.2017 60.6705C93.2017 60.1136 93.1165 59.6023 92.946 59.1364C92.7794 58.6667 92.5218 58.2898 92.1733 58.0057C91.8248 57.7216 91.3854 57.5795 90.8551 57.5795C90.321 57.5795 89.8778 57.7216 89.5256 58.0057C89.1771 58.2898 88.9176 58.6667 88.7472 59.1364C88.5805 59.6023 88.4972 60.1136 88.4972 60.6705C88.4972 61.2311 88.5805 61.7443 88.7472 62.2102C88.9176 62.6761 89.1771 63.0492 89.5256 63.3295C89.8778 63.6098 90.321 63.75 90.8551 63.75ZM103.983 56.2727L100.818 65H99L95.8295 56.2727H97.6534L99.8636 62.9886H99.9545L102.159 56.2727H103.983ZM109.044 65.1761C108.184 65.1761 107.444 64.9924 106.822 64.625C106.205 64.2538 105.728 63.733 105.391 63.0625C105.057 62.3883 104.891 61.5985 104.891 60.6932C104.891 59.7992 105.057 59.0114 105.391 58.3295C105.728 57.6477 106.197 57.1155 106.8 56.733C107.406 56.3504 108.114 56.1591 108.925 56.1591C109.417 56.1591 109.894 56.2405 110.357 56.4034C110.819 56.5663 111.233 56.822 111.601 57.1705C111.968 57.5189 112.258 57.9716 112.47 58.5284C112.682 59.0814 112.788 59.7538 112.788 60.5455V61.1477H105.851V59.875H111.124C111.124 59.428 111.033 59.0322 110.851 58.6875C110.669 58.339 110.413 58.0644 110.084 57.8636C109.758 57.6629 109.375 57.5625 108.936 57.5625C108.459 57.5625 108.042 57.6799 107.686 57.9148C107.334 58.1458 107.061 58.4489 106.868 58.8239C106.679 59.1951 106.584 59.5985 106.584 60.0341V61.0284C106.584 61.6117 106.686 62.108 106.891 62.517C107.099 62.9261 107.389 63.2386 107.76 63.4545C108.131 63.6667 108.565 63.7727 109.061 63.7727C109.383 63.7727 109.677 63.7273 109.942 63.6364C110.207 63.5417 110.436 63.4015 110.629 63.2159C110.822 63.0303 110.97 62.8011 111.072 62.5284L112.68 62.8182C112.552 63.2917 112.321 63.7064 111.987 64.0625C111.658 64.4148 111.243 64.6894 110.743 64.8864C110.247 65.0795 109.68 65.1761 109.044 65.1761ZM117.94 65.1705C117.236 65.1705 116.607 64.9905 116.054 64.6307C115.505 64.267 115.073 63.75 114.759 63.0795C114.448 62.4053 114.293 61.5966 114.293 60.6534C114.293 59.7102 114.45 58.9034 114.764 58.233C115.082 57.5625 115.518 57.0492 116.071 56.6932C116.624 56.3371 117.251 56.1591 117.952 56.1591C118.493 56.1591 118.929 56.25 119.259 56.4318C119.592 56.6098 119.849 56.8182 120.031 57.0568C120.217 57.2955 120.361 57.5057 120.463 57.6875H120.565V53.3636H122.264V65H120.605V63.642H120.463C120.361 63.8277 120.213 64.0398 120.02 64.2784C119.83 64.517 119.569 64.7254 119.236 64.9034C118.902 65.0814 118.471 65.1705 117.94 65.1705ZM118.315 63.7216C118.804 63.7216 119.217 63.5928 119.554 63.3352C119.895 63.0739 120.152 62.7121 120.327 62.25C120.505 61.7879 120.594 61.25 120.594 60.6364C120.594 60.0303 120.507 59.5 120.332 59.0455C120.158 58.5909 119.902 58.2367 119.565 57.983C119.228 57.7292 118.812 57.6023 118.315 57.6023C117.804 57.6023 117.378 57.7348 117.037 58C116.696 58.2652 116.438 58.6269 116.264 59.0852C116.094 59.5436 116.009 60.0606 116.009 60.6364C116.009 61.2197 116.096 61.7443 116.27 62.2102C116.444 62.6761 116.702 63.0455 117.043 63.3182C117.387 63.5871 117.812 63.7216 118.315 63.7216ZM139.168 59.1818C139.168 60.4242 138.94 61.4924 138.486 62.3864C138.031 63.2765 137.408 63.9621 136.616 64.4432C135.829 64.9205 134.933 65.1591 133.929 65.1591C132.921 65.1591 132.022 64.9205 131.23 64.4432C130.442 63.9621 129.821 63.2746 129.366 62.3807C128.912 61.4867 128.685 60.4205 128.685 59.1818C128.685 57.9394 128.912 56.8731 129.366 55.983C129.821 55.089 130.442 54.4034 131.23 53.9261C132.022 53.4451 132.921 53.2045 133.929 53.2045C134.933 53.2045 135.829 53.4451 136.616 53.9261C137.408 54.4034 138.031 55.089 138.486 55.983C138.94 56.8731 139.168 57.9394 139.168 59.1818ZM137.429 59.1818C137.429 58.2348 137.276 57.4375 136.969 56.7898C136.666 56.1383 136.249 55.6458 135.719 55.3125C135.192 54.9754 134.596 54.8068 133.929 54.8068C133.259 54.8068 132.66 54.9754 132.134 55.3125C131.607 55.6458 131.19 56.1383 130.884 56.7898C130.58 57.4375 130.429 58.2348 130.429 59.1818C130.429 60.1288 130.58 60.928 130.884 61.5795C131.19 62.2273 131.607 62.7197 132.134 63.0568C132.66 63.3902 133.259 63.5568 133.929 63.5568C134.596 63.5568 135.192 63.3902 135.719 63.0568C136.249 62.7197 136.666 62.2273 136.969 61.5795C137.276 60.928 137.429 60.1288 137.429 59.1818ZM142.919 59.8182V65H141.22V56.2727H142.851V57.6932H142.959C143.16 57.2311 143.474 56.8598 143.902 56.5795C144.334 56.2992 144.877 56.1591 145.533 56.1591C146.127 56.1591 146.648 56.2841 147.095 56.5341C147.542 56.7803 147.889 57.1477 148.135 57.6364C148.381 58.125 148.504 58.7292 148.504 59.4489V65H146.805V59.6534C146.805 59.0208 146.641 58.5265 146.311 58.1705C145.982 57.8106 145.529 57.6307 144.953 57.6307C144.559 57.6307 144.209 57.7159 143.902 57.8864C143.599 58.0568 143.358 58.3068 143.18 58.6364C143.006 58.9621 142.919 59.3561 142.919 59.8182ZM154.544 65.1761C153.684 65.1761 152.944 64.9924 152.322 64.625C151.705 64.2538 151.228 63.733 150.891 63.0625C150.557 62.3883 150.391 61.5985 150.391 60.6932C150.391 59.7992 150.557 59.0114 150.891 58.3295C151.228 57.6477 151.697 57.1155 152.3 56.733C152.906 56.3504 153.614 56.1591 154.425 56.1591C154.917 56.1591 155.394 56.2405 155.857 56.4034C156.319 56.5663 156.733 56.822 157.101 57.1705C157.468 57.5189 157.758 57.9716 157.97 58.5284C158.182 59.0814 158.288 59.7538 158.288 60.5455V61.1477H151.351V59.875H156.624C156.624 59.428 156.533 59.0322 156.351 58.6875C156.169 58.339 155.913 58.0644 155.584 57.8636C155.258 57.6629 154.875 57.5625 154.436 57.5625C153.959 57.5625 153.542 57.6799 153.186 57.9148C152.834 58.1458 152.561 58.4489 152.368 58.8239C152.179 59.1951 152.084 59.5985 152.084 60.0341V61.0284C152.084 61.6117 152.186 62.108 152.391 62.517C152.599 62.9261 152.889 63.2386 153.26 63.4545C153.631 63.6667 154.065 63.7727 154.561 63.7727C154.883 63.7727 155.177 63.7273 155.442 63.6364C155.707 63.5417 155.936 63.4015 156.129 63.2159C156.322 63.0303 156.47 62.8011 156.572 62.5284L158.18 62.8182C158.052 63.2917 157.821 63.7064 157.487 64.0625C157.158 64.4148 156.743 64.6894 156.243 64.8864C155.747 65.0795 155.18 65.1761 154.544 65.1761ZM166.713 58.4034L165.173 58.6761C165.109 58.4792 165.007 58.2917 164.866 58.1136C164.73 57.9356 164.545 57.7898 164.31 57.6761C164.075 57.5625 163.781 57.5057 163.429 57.5057C162.948 57.5057 162.546 57.6136 162.224 57.8295C161.902 58.0417 161.741 58.3163 161.741 58.6534C161.741 58.9451 161.849 59.1799 162.065 59.358C162.281 59.536 162.63 59.6818 163.111 59.7955L164.497 60.1136C165.3 60.2992 165.899 60.5852 166.293 60.9716C166.687 61.358 166.884 61.8598 166.884 62.4773C166.884 63 166.732 63.4659 166.429 63.875C166.13 64.2803 165.711 64.5985 165.173 64.8295C164.639 65.0606 164.02 65.1761 163.315 65.1761C162.338 65.1761 161.541 64.9678 160.923 64.5511C160.306 64.1307 159.927 63.5341 159.787 62.7614L161.429 62.5114C161.531 62.9394 161.741 63.2633 162.06 63.483C162.378 63.6989 162.793 63.8068 163.304 63.8068C163.861 63.8068 164.306 63.6913 164.639 63.4602C164.973 63.2254 165.139 62.9394 165.139 62.6023C165.139 62.3295 165.037 62.1004 164.832 61.9148C164.632 61.7292 164.323 61.589 163.906 61.4943L162.429 61.1705C161.615 60.9848 161.012 60.6894 160.622 60.2841C160.236 59.8788 160.043 59.3655 160.043 58.7443C160.043 58.2292 160.187 57.7784 160.474 57.392C160.762 57.0057 161.16 56.7045 161.668 56.4886C162.175 56.2689 162.757 56.1591 163.412 56.1591C164.355 56.1591 165.098 56.3636 165.639 56.7727C166.181 57.178 166.539 57.7216 166.713 58.4034Z" fill="black"/>
<g clip-path="url(#clip0_10_713)">
<path d="M48.7657 67.317C48.9596 67.515 49.2236 67.625 49.4999 67.625C49.7763 67.625 50.0403 67.515 50.2342 67.317L63.4259 53.9506C68.9273 48.3778 65.0182 38.75 57.1944 38.75C52.4961 38.75 50.3401 42.2026 49.4999 42.8475C48.6557 42.1999 46.5134 38.75 41.8054 38.75C34.0064 38.75 30.0492 48.353 35.5753 53.9506L48.7657 67.317Z" fill="#54BD95"/>
</g>
<defs>
<filter id="filter0_d_10_713" x="0.3" y="0.3" width="212.4" height="109.4" filterUnits="userSpaceOnUse" color-interpolation-filters="sRGB">
<feFlood flood-opacity="0" result="BackgroundImageFix"/>
<feColorMatrix in="SourceAlpha" type="matrix" values="0 0 0 0 0 0 0 0 0 0 0 0 0 0 0 0 0 0 127 0" result="hardAlpha"/>
<feOffset dy="4"/>
<feGaussianBlur stdDeviation="7.85"/>
<feComposite in2="hardAlpha" operator="out"/>
<feColorMatrix type="matrix" values="0 0 0 0 0 0 0 0 0 0 0 0 0 0 0 0 0 0 0.07 0"/>
<feBlend mode="normal" in2="BackgroundImageFix" result="effect1_dropShadow_10_713"/>
<feBlend mode="normal" in="SourceGraphic" in2="effect1_dropShadow_10_713" result="shape"/>
</filter>
<clipPath id="clip0_10_713">
<rect width="33" height="33" fill="white" transform="translate(33 36)"/>
</clipPath>
</defs>
</svg>
