<svg width="78" height="78" viewBox="0 0 78 78" fill="none" xmlns="http://www.w3.org/2000/svg">
<g filter="url(#filter0_d_2001_246)">
<rect x="9" y="5" width="60" height="60" fill="white"/>
</g>
<path d="M53.877 30.949L52.199 29.894V26.03C52.199 24.359 50.835 23 49.158 23H36.388C34.717 23 33.358 24.359 33.358 26.03V28.797H30.637C28.963 28.797 27.602 30.158 27.602 31.832V35.693L25.925 36.74C25.345 37.103 25 37.727 25 38.409C25 39.091 25.346 39.716 25.925 40.078L27.602 41.126V44.986C27.602 46.66 28.963 48.021 30.637 48.021H43.405C45.079 48.021 46.44 46.66 46.44 44.986V42.221H49.158C50.835 42.221 52.199 40.862 52.199 39.191V35.33L53.876 34.284C54.459 33.919 54.805 33.29 54.801 32.602C54.796 31.918 54.448 31.298 53.877 30.949ZM44.639 44.987C44.639 45.668 44.085 46.221 43.405 46.221H30.637C29.956 46.221 29.402 45.667 29.402 44.987V40.628C29.402 40.317 29.242 40.029 28.979 39.864L26.878 38.551C26.826 38.519 26.799 38.471 26.799 38.409C26.799 38.347 26.825 38.3 26.878 38.267L28.978 36.954C29.241 36.79 29.401 36.501 29.401 36.191V31.831C29.401 31.15 29.955 30.596 30.636 30.596H43.404C44.085 30.596 44.638 31.15 44.638 31.831L44.639 44.987ZM52.921 32.757L50.821 34.067C50.557 34.232 50.397 34.52 50.397 34.831V39.191C50.397 39.869 49.841 40.42 49.157 40.42H46.44V31.832C46.44 30.158 45.079 28.797 43.405 28.797H35.158V26.03C35.158 25.352 35.71 24.8 36.388 24.8H49.158C49.843 24.8 50.398 25.352 50.398 26.03V30.39C50.398 30.7 50.557 30.987 50.82 31.152L52.928 32.477C52.976 32.506 53 32.551 53 32.61C53.001 32.655 52.987 32.716 52.921 32.757Z" fill="#54BD95"/>
<path d="M37.7159 33.304C36.3009 32.996 34.8599 33.675 34.2139 34.956C33.9909 35.398 33.8779 35.874 33.8779 36.372C33.8779 36.869 34.2809 37.272 34.7779 37.272C35.2749 37.272 35.6779 36.869 35.6779 36.372C35.6779 36.159 35.7259 35.956 35.8219 35.768C36.0559 35.305 36.6139 34.906 37.3349 35.063C37.8199 35.168 38.2189 35.563 38.3279 36.047C38.4919 36.77 38.0959 37.333 37.6299 37.57C36.6999 38.046 36.1219 38.967 36.1219 39.974C36.1219 40.471 36.5249 40.874 37.0219 40.874C37.5189 40.874 37.9219 40.471 37.9219 39.974C37.9219 39.646 38.1239 39.339 38.4479 39.173C39.7319 38.519 40.4049 37.069 40.0839 35.65C39.8179 34.48 38.8889 33.559 37.7159 33.304Z" fill="#54BD95"/>
<path d="M37.66 42.051C37.58 41.971 37.47 41.901 37.37 41.861C37.14 41.771 36.9 41.771 36.68 41.861C36.57 41.901 36.47 41.971 36.38 42.051C36.3 42.141 36.24 42.24 36.19 42.351C36.14 42.451 36.12 42.571 36.12 42.691C36.12 42.931 36.22 43.161 36.38 43.321C36.55 43.491 36.78 43.592 37.02 43.592C37.14 43.592 37.26 43.571 37.37 43.522C37.42 43.502 37.47 43.472 37.52 43.442C37.57 43.412 37.62 43.372 37.66 43.322C37.74 43.242 37.81 43.142 37.85 43.032C37.9 42.923 37.92 42.812 37.92 42.692C37.92 42.572 37.9 42.452 37.85 42.352C37.81 42.24 37.74 42.141 37.66 42.051Z" fill="#54BD95"/>
<defs>
<filter id="filter0_d_2001_246" x="0" y="0" width="78" height="78" filterUnits="userSpaceOnUse" color-interpolation-filters="sRGB">
<feFlood flood-opacity="0" result="BackgroundImageFix"/>
<feColorMatrix in="SourceAlpha" type="matrix" values="0 0 0 0 0 0 0 0 0 0 0 0 0 0 0 0 0 0 127 0" result="hardAlpha"/>
<feOffset dy="4"/>
<feGaussianBlur stdDeviation="4.5"/>
<feComposite in2="hardAlpha" operator="out"/>
<feColorMatrix type="matrix" values="0 0 0 0 0 0 0 0 0 0 0 0 0 0 0 0 0 0 0.05 0"/>
<feBlend mode="normal" in2="BackgroundImageFix" result="effect1_dropShadow_2001_246"/>
<feBlend mode="normal" in="SourceGraphic" in2="effect1_dropShadow_2001_246" result="shape"/>
</filter>
</defs>
</svg>
