<svg width="212" height="86" viewBox="0 0 212 86" fill="none" xmlns="http://www.w3.org/2000/svg">
<g filter="url(#filter0_d_10_694)">
<rect x="9" y="5" width="194" height="68" rx="10" fill="white"/>
</g>
<path d="M74.5852 46V32.9091H76.1705V44.5938H82.2557V46H74.5852ZM88.0822 46.2045C87.1361 46.2045 86.3201 45.9957 85.634 45.5781C84.9522 45.1562 84.4259 44.5682 84.0552 43.8139C83.6887 43.0554 83.5055 42.1733 83.5055 41.1676C83.5055 40.1619 83.6887 39.2756 84.0552 38.5085C84.4259 37.7372 84.9415 37.1364 85.602 36.706C86.2668 36.2713 87.0424 36.054 87.9288 36.054C88.4401 36.054 88.9451 36.1392 89.4437 36.3097C89.9422 36.4801 90.3961 36.7571 90.8052 37.1406C91.2143 37.5199 91.5403 38.0227 91.7832 38.6491C92.0261 39.2756 92.1475 40.0469 92.1475 40.9631V41.6023H84.5793V40.2983H90.6134C90.6134 39.7443 90.5026 39.25 90.281 38.8153C90.0637 38.3807 89.7526 38.0376 89.3478 37.7862C88.9472 37.5348 88.4742 37.4091 87.9288 37.4091C87.3279 37.4091 86.808 37.5582 86.3691 37.8565C85.9344 38.1506 85.5999 38.5341 85.3655 39.0071C85.1312 39.4801 85.014 39.9872 85.014 40.5284V41.3977C85.014 42.1392 85.1418 42.7678 85.3975 43.2834C85.6574 43.7947 86.0175 44.1847 86.4778 44.4531C86.938 44.7173 87.4728 44.8494 88.0822 44.8494C88.4785 44.8494 88.8364 44.794 89.156 44.6832C89.4799 44.5682 89.759 44.3977 89.9934 44.1719C90.2278 43.9418 90.4089 43.6562 90.5367 43.3153L91.9941 43.7244C91.8407 44.2188 91.5829 44.6534 91.2207 45.0284C90.8584 45.3991 90.411 45.6889 89.8783 45.8977C89.3457 46.1023 88.7469 46.2045 88.0822 46.2045ZM97.8653 49.8864C97.1366 49.8864 96.5102 49.7926 95.9861 49.6051C95.4619 49.4219 95.0251 49.179 94.6757 48.8764C94.3305 48.5781 94.0557 48.2585 93.8511 47.9176L95.0528 47.0739C95.1892 47.2528 95.3618 47.4574 95.5706 47.6875C95.7794 47.9219 96.0649 48.1243 96.4271 48.2947C96.7936 48.4695 97.273 48.5568 97.8653 48.5568C98.6579 48.5568 99.312 48.3651 99.8277 47.9815C100.343 47.598 100.601 46.9972 100.601 46.179V44.1847H100.473C100.362 44.3636 100.205 44.5852 100 44.8494C99.8 45.1094 99.5102 45.3416 99.1309 45.5462C98.7559 45.7464 98.2488 45.8466 97.6096 45.8466C96.817 45.8466 96.1054 45.6591 95.4747 45.2841C94.8483 44.9091 94.3518 44.3636 93.9853 43.6477C93.6231 42.9318 93.442 42.0625 93.442 41.0398C93.442 40.0341 93.6189 39.1584 93.9726 38.4126C94.3263 37.6626 94.8184 37.0831 95.4491 36.674C96.0798 36.2607 96.8085 36.054 97.6352 36.054C98.2744 36.054 98.7815 36.1605 99.1565 36.3736C99.5358 36.5824 99.8255 36.821 100.026 37.0895C100.23 37.3537 100.388 37.571 100.499 37.7415H100.652V36.1818H102.11V46.2812C102.11 47.125 101.918 47.8111 101.534 48.3395C101.155 48.8722 100.644 49.2621 100 49.5092C99.3611 49.7607 98.6494 49.8864 97.8653 49.8864ZM97.8142 44.4915C98.4193 44.4915 98.9307 44.353 99.3483 44.076C99.7659 43.799 100.083 43.4006 100.301 42.8807C100.518 42.3608 100.627 41.7386 100.627 41.0142C100.627 40.3068 100.52 39.6825 100.307 39.1413C100.094 38.6001 99.7787 38.1761 99.3611 37.8693C98.9434 37.5625 98.4278 37.4091 97.8142 37.4091C97.175 37.4091 96.6423 37.571 96.2162 37.8949C95.7943 38.2187 95.4768 38.6534 95.2638 39.1989C95.0549 39.7443 94.9505 40.3494 94.9505 41.0142C94.9505 41.696 95.0571 42.299 95.2701 42.8232C95.4875 43.343 95.8071 43.7521 96.2289 44.0504C96.6551 44.3445 97.1835 44.4915 97.8142 44.4915ZM107.22 46.2301C106.598 46.2301 106.033 46.1129 105.526 45.8786C105.019 45.6399 104.617 45.2969 104.318 44.8494C104.02 44.3977 103.871 43.8523 103.871 43.2131C103.871 42.6506 103.982 42.1946 104.203 41.8452C104.425 41.4915 104.721 41.2145 105.092 41.0142C105.462 40.8139 105.871 40.6648 106.319 40.5668C106.771 40.4645 107.224 40.3835 107.68 40.3239C108.277 40.2472 108.761 40.1896 109.131 40.1513C109.506 40.1087 109.779 40.0384 109.95 39.9403C110.124 39.8423 110.212 39.6719 110.212 39.429V39.3778C110.212 38.7472 110.039 38.2571 109.694 37.9077C109.353 37.5582 108.835 37.3835 108.141 37.3835C107.42 37.3835 106.856 37.5412 106.447 37.8565C106.038 38.1719 105.75 38.5085 105.584 38.8665L104.152 38.3551C104.408 37.7585 104.749 37.294 105.175 36.9616C105.605 36.625 106.074 36.3906 106.581 36.2585C107.092 36.1222 107.595 36.054 108.09 36.054C108.405 36.054 108.767 36.0923 109.176 36.169C109.59 36.2415 109.988 36.3928 110.371 36.6229C110.759 36.853 111.081 37.2003 111.337 37.6648C111.592 38.1293 111.72 38.7514 111.72 39.5312V46H110.212V44.6705H110.135C110.033 44.8835 109.862 45.1115 109.624 45.3544C109.385 45.5973 109.067 45.804 108.671 45.9744C108.275 46.1449 107.791 46.2301 107.22 46.2301ZM107.45 44.875C108.047 44.875 108.55 44.7578 108.959 44.5234C109.372 44.2891 109.683 43.9865 109.892 43.6158C110.105 43.245 110.212 42.8551 110.212 42.446V41.0653C110.148 41.142 110.007 41.2124 109.79 41.2763C109.577 41.3359 109.33 41.3892 109.048 41.4361C108.771 41.4787 108.501 41.517 108.237 41.5511C107.977 41.581 107.766 41.6065 107.604 41.6278C107.212 41.679 106.845 41.7621 106.504 41.8771C106.168 41.9879 105.895 42.1562 105.686 42.3821C105.482 42.6037 105.379 42.9062 105.379 43.2898C105.379 43.8139 105.573 44.2102 105.961 44.4787C106.353 44.7429 106.849 44.875 107.45 44.875ZM115.442 32.9091V46H113.934V32.9091H115.442ZM122.392 46V32.9091H126.815C127.838 32.9091 128.678 33.0838 129.334 33.4332C129.99 33.7784 130.476 34.2536 130.791 34.8587C131.107 35.4638 131.264 36.152 131.264 36.9233C131.264 37.6946 131.107 38.3786 130.791 38.9751C130.476 39.5717 129.992 40.0405 129.34 40.3814C128.688 40.718 127.855 40.8864 126.841 40.8864H123.261V39.4545H126.79C127.489 39.4545 128.051 39.3523 128.477 39.1477C128.908 38.9432 129.219 38.6534 129.411 38.2784C129.607 37.8991 129.705 37.4474 129.705 36.9233C129.705 36.3991 129.607 35.9411 129.411 35.549C129.215 35.157 128.901 34.8544 128.471 34.6413C128.041 34.424 127.472 34.3153 126.764 34.3153H123.977V46H122.392ZM128.554 40.1193L131.776 46H129.935L126.764 40.1193H128.554ZM137.172 46.2045C136.226 46.2045 135.41 45.9957 134.724 45.5781C134.042 45.1562 133.516 44.5682 133.145 43.8139C132.779 43.0554 132.596 42.1733 132.596 41.1676C132.596 40.1619 132.779 39.2756 133.145 38.5085C133.516 37.7372 134.032 37.1364 134.692 36.706C135.357 36.2713 136.132 36.054 137.019 36.054C137.53 36.054 138.035 36.1392 138.534 36.3097C139.032 36.4801 139.486 36.7571 139.895 37.1406C140.304 37.5199 140.63 38.0227 140.873 38.6491C141.116 39.2756 141.238 40.0469 141.238 40.9631V41.6023H133.669V40.2983H139.703C139.703 39.7443 139.593 39.25 139.371 38.8153C139.154 38.3807 138.843 38.0376 138.438 37.7862C138.037 37.5348 137.564 37.4091 137.019 37.4091C136.418 37.4091 135.898 37.5582 135.459 37.8565C135.025 38.1506 134.69 38.5341 134.456 39.0071C134.221 39.4801 134.104 39.9872 134.104 40.5284V41.3977C134.104 42.1392 134.232 42.7678 134.488 43.2834C134.748 43.7947 135.108 44.1847 135.568 44.4531C136.028 44.7173 136.563 44.8494 137.172 44.8494C137.569 44.8494 137.927 44.794 138.246 44.6832C138.57 44.5682 138.849 44.3977 139.083 44.1719C139.318 43.9418 139.499 43.6562 139.627 43.3153L141.084 43.7244C140.931 44.2188 140.673 44.6534 140.311 45.0284C139.949 45.3991 139.501 45.6889 138.968 45.8977C138.436 46.1023 137.837 46.2045 137.172 46.2045ZM150.722 36.1818L147.091 46H145.557L141.926 36.1818H143.563L146.273 44.0057H146.375L149.086 36.1818H150.722ZM152.173 46V36.1818H153.682V46H152.173ZM152.94 34.5455C152.646 34.5455 152.392 34.4453 152.179 34.245C151.971 34.0447 151.866 33.804 151.866 33.5227C151.866 33.2415 151.971 33.0007 152.179 32.8004C152.392 32.6001 152.646 32.5 152.94 32.5C153.234 32.5 153.486 32.6001 153.694 32.8004C153.907 33.0007 154.014 33.2415 154.014 33.5227C154.014 33.804 153.907 34.0447 153.694 34.245C153.486 34.4453 153.234 34.5455 152.94 34.5455ZM160.021 46.2045C159.075 46.2045 158.259 45.9957 157.573 45.5781C156.891 45.1562 156.365 44.5682 155.994 43.8139C155.628 43.0554 155.444 42.1733 155.444 41.1676C155.444 40.1619 155.628 39.2756 155.994 38.5085C156.365 37.7372 156.88 37.1364 157.541 36.706C158.206 36.2713 158.981 36.054 159.868 36.054C160.379 36.054 160.884 36.1392 161.382 36.3097C161.881 36.4801 162.335 36.7571 162.744 37.1406C163.153 37.5199 163.479 38.0227 163.722 38.6491C163.965 39.2756 164.086 40.0469 164.086 40.9631V41.6023H156.518V40.2983H162.552C162.552 39.7443 162.441 39.25 162.22 38.8153C162.003 38.3807 161.691 38.0376 161.287 37.7862C160.886 37.5348 160.413 37.4091 159.868 37.4091C159.267 37.4091 158.747 37.5582 158.308 37.8565C157.873 38.1506 157.539 38.5341 157.304 39.0071C157.07 39.4801 156.953 39.9872 156.953 40.5284V41.3977C156.953 42.1392 157.081 42.7678 157.336 43.2834C157.596 43.7947 157.956 44.1847 158.417 44.4531C158.877 44.7173 159.412 44.8494 160.021 44.8494C160.417 44.8494 160.775 44.794 161.095 44.6832C161.419 44.5682 161.698 44.3977 161.932 44.1719C162.167 43.9418 162.348 43.6562 162.476 43.3153L163.933 43.7244C163.78 44.2188 163.522 44.6534 163.159 45.0284C162.797 45.3991 162.35 45.6889 161.817 45.8977C161.284 46.1023 160.686 46.2045 160.021 46.2045ZM168.066 46L165.074 36.1818H166.659L168.781 43.6989H168.884L170.98 36.1818H172.591L174.662 43.6733H174.764L176.887 36.1818H178.472L175.48 46H173.997L171.85 38.4574H171.696L169.548 46H168.066Z" fill="#191A15"/>
<path fill-rule="evenodd" clip-rule="evenodd" d="M36.8333 38C36.8333 32.9373 40.9373 28.8333 46 28.8333C51.0626 28.8333 55.1666 32.9373 55.1666 38C55.1666 43.0626 51.0626 47.1666 46 47.1666C40.9373 47.1666 36.8333 43.0626 36.8333 38ZM46 27.1666C40.0169 27.1666 35.1666 32.0169 35.1666 38C35.1666 43.983 40.0169 48.8333 46 48.8333C51.983 48.8333 56.8333 43.983 56.8333 38C56.8333 32.0169 51.983 27.1666 46 27.1666ZM45.9301 41.6943L51.7196 35.6943L50.2803 34.3056L45.1148 39.659L41.6137 36.9377L40.3863 38.5168L44.5968 41.7895L45.3062 42.3409L45.9301 41.6943Z" fill="#2B9B5B"/>
<defs>
<filter id="filter0_d_10_694" x="0" y="0" width="212" height="86" filterUnits="userSpaceOnUse" color-interpolation-filters="sRGB">
<feFlood flood-opacity="0" result="BackgroundImageFix"/>
<feColorMatrix in="SourceAlpha" type="matrix" values="0 0 0 0 0 0 0 0 0 0 0 0 0 0 0 0 0 0 127 0" result="hardAlpha"/>
<feOffset dy="4"/>
<feGaussianBlur stdDeviation="4.5"/>
<feComposite in2="hardAlpha" operator="out"/>
<feColorMatrix type="matrix" values="0 0 0 0 0 0 0 0 0 0 0 0 0 0 0 0 0 0 0.05 0"/>
<feBlend mode="normal" in2="BackgroundImageFix" result="effect1_dropShadow_10_694"/>
<feBlend mode="normal" in="SourceGraphic" in2="effect1_dropShadow_10_694" result="shape"/>
</filter>
</defs>
</svg>
