<svg width="46" height="46" viewBox="0 0 46 46" fill="none" xmlns="http://www.w3.org/2000/svg">
<g clip-path="url(#clip0_15_185)">
<path d="M15.4202 20.4015C15.7184 20.4019 16.0046 20.2832 16.2155 20.0724C16.4264 19.8615 16.545 19.5753 16.5446 19.2771C16.5446 18.656 17.0483 18.1523 17.6694 18.1523C18.2905 18.1523 18.7942 18.656 18.7942 19.2771C18.7942 19.8982 19.2975 20.4015 19.9185 20.4015C20.54 20.4015 21.0433 19.8982 21.0433 19.2771C21.0433 17.4134 19.5326 15.9031 17.6694 15.9031C15.8061 15.9031 14.2954 17.4134 14.2954 19.2771C14.2954 19.5753 14.4136 19.8615 14.6245 20.0724C14.8358 20.2832 15.1216 20.4019 15.4202 20.4015Z" fill="black"/>
<path d="M30.6624 27.8306C26.4623 29.9303 20.1241 29.9303 15.9231 27.8306C15.3675 27.5526 14.6921 27.7779 14.4141 28.3335C14.1365 28.8891 14.3614 29.5649 14.917 29.8425C17.5348 31.0773 20.3988 31.6992 23.2926 31.6613C26.1863 31.6992 29.0508 31.0769 31.6682 29.8425C32.2238 29.5649 32.4491 28.8891 32.1715 28.3335C31.8935 27.7779 31.218 27.5526 30.6624 27.8306Z" fill="black"/>
<path d="M42.4119 18.1523H41.2871V14.7783C41.2842 11.6741 38.7682 9.15805 35.664 9.15516H32.29V6.69841C33.839 6.15105 34.7686 4.56662 34.4906 2.94718C34.2126 1.32733 32.8086 0.143646 31.1652 0.143646C29.5219 0.143646 28.1179 1.32733 27.8399 2.94718C27.5619 4.56662 28.4914 6.15105 30.0404 6.69841V9.15516H16.5446V6.69841C18.094 6.15105 19.0232 4.56662 18.7456 2.94718C18.4676 1.32733 17.0635 0.143646 15.4202 0.143646C13.7769 0.143646 12.3724 1.32733 12.0948 2.94718C11.8168 4.56662 12.746 6.15105 14.2954 6.69841V9.15516H10.9215C7.81726 9.15846 5.30161 11.6741 5.29832 14.7783V18.1523H4.17352C2.31109 18.1543 0.80162 19.6638 0.799561 21.5262V26.025C0.80162 27.8874 2.31109 29.3969 4.17352 29.3989H5.29832V33.8973C5.30161 37.0019 7.81726 39.5175 10.9215 39.5208H16.5446V44.0192C16.545 44.4282 16.767 44.8046 17.1245 45.0027C17.482 45.2008 17.919 45.1893 18.2653 44.9726L26.9894 39.5208H35.664C38.7682 39.518 41.2842 37.0019 41.2871 33.8973V29.3989H42.4119C44.2744 29.3969 45.7838 27.8874 45.7859 26.025V21.5262C45.7838 19.6638 44.2744 18.1543 42.4119 18.1523ZM31.1652 2.40723C31.7863 2.40723 32.29 2.91053 32.29 3.53161C32.29 4.15311 31.7863 4.65641 31.1652 4.65641C30.5442 4.65641 30.0404 4.15311 30.0404 3.53161C30.0417 2.91135 30.5446 2.40847 31.1652 2.40723ZM15.4202 2.40723C16.0413 2.40723 16.5446 2.91053 16.5446 3.53161C16.5446 4.15311 16.0413 4.65641 15.4202 4.65641C14.7991 4.65641 14.2954 4.15311 14.2954 3.53161C14.2962 2.91094 14.7991 2.40806 15.4202 2.40723ZM4.17352 27.1494C3.55285 27.149 3.04956 26.6457 3.04873 26.025V21.5262C3.04956 20.9056 3.55285 20.4023 4.17352 20.4014H5.29832V27.1494H4.17352ZM39.038 33.8973C39.0359 35.7601 37.5264 37.2696 35.664 37.2713H26.6665C26.456 37.2713 26.2497 37.3306 26.0713 37.4426L18.7942 41.9895V38.396C18.7942 38.0979 18.676 37.8116 18.4647 37.6007C18.2538 37.3899 17.9676 37.2713 17.6694 37.2713H10.9215C9.05902 37.2696 7.54955 35.7601 7.54749 33.8973V14.7783C7.54955 12.9159 9.05902 11.4064 10.9215 11.4043H35.664C37.5264 11.4064 39.0359 12.9159 39.038 14.7783V33.8973ZM43.5363 26.025C43.5355 26.6457 43.0326 27.1485 42.4119 27.1494H41.2871V20.4014H42.4119C43.0326 20.4027 43.5355 20.9056 43.5363 21.5262V26.025Z" fill="black"/>
<path d="M28.9162 15.9031C27.0538 15.9052 25.5443 17.4146 25.5422 19.2771C25.5422 19.8982 26.0455 20.4015 26.6666 20.4015C27.2881 20.4015 27.7914 19.8982 27.7914 19.2771C27.7914 18.656 28.2951 18.1523 28.9162 18.1523C29.5373 18.1523 30.0406 18.656 30.0406 19.2771C30.0406 19.8982 30.5443 20.4015 31.1654 20.4015C31.7865 20.4015 32.2902 19.8982 32.2902 19.2771C32.2881 17.4146 30.7786 15.9052 28.9162 15.9031Z" fill="black"/>
</g>
<defs>
<clipPath id="clip0_15_185">
<rect width="45" height="45" fill="white" transform="translate(0.715576 0.143646)"/>
</clipPath>
</defs>
</svg>
