<svg width="78" height="78" viewBox="0 0 78 78" fill="none" xmlns="http://www.w3.org/2000/svg">
<rect x="16.3796" width="63.2856" height="63.2856" rx="13.0291" transform="rotate(15 16.3796 0)" fill="#FBC75E"/>
<g clip-path="url(#clip0_4_643)">
<path d="M55.8364 33.8473C56.0287 32.941 56.2511 32.0861 56.4735 31.2311C56.6535 30.539 56.2619 29.8721 55.5698 29.692C50.4808 28.3682 46.9945 25.8964 44.5937 21.9249C44.2217 21.35 43.4889 21.1593 42.8838 21.4801C38.8521 23.7782 34.6032 24.2377 29.5142 22.9138C28.8221 22.7338 28.1552 23.1254 27.9751 23.8175C27.7527 24.6724 27.5303 25.5274 27.2566 26.4124C24.8696 34.9196 21.5752 46.5811 34.5835 55.2246L34.9695 55.412L35.3978 55.4365C50.9285 54.2171 53.7645 42.4799 55.8364 33.8473ZM37.4874 41.7229C37.1902 41.8629 36.8734 41.9109 36.5477 41.8261L36.507 41.8155C36.1813 41.7308 35.898 41.4832 35.758 41.186L33.0626 36.0077L35.3183 34.8558L37.4324 38.9267L45.6588 34.3727L46.8619 36.5983L37.4874 41.7229Z" fill="white"/>
</g>
<defs>
<clipPath id="clip0_4_643">
<rect width="35.1785" height="35.1785" fill="white" transform="translate(26.8027 16.9381) rotate(14.5819)"/>
</clipPath>
</defs>
</svg>
