<svg width="46" height="46" viewBox="0 0 46 46" fill="none" xmlns="http://www.w3.org/2000/svg">
<g clip-path="url(#clip0_15_169)">
<path d="M10.0728 28.8201H4.77863C3.32278 28.8201 2.13159 30.0113 2.13159 31.4672V44.2613C2.13159 44.7465 2.52863 45.1436 3.01391 45.1436H11.8374C12.3227 45.1436 12.7197 44.7465 12.7197 44.2613V31.4672C12.7198 30.0113 11.5287 28.8201 10.0728 28.8201ZM10.9552 43.3789H3.89631V31.4672C3.89631 30.982 4.29334 30.5849 4.77863 30.5849H10.0728C10.5581 30.5849 10.9551 30.982 10.9551 31.4672L10.9552 43.3789Z" fill="black"/>
<path d="M25.0728 21.7613H19.7786C18.3228 21.7613 17.1316 22.9525 17.1316 24.4084V44.2613C17.1316 44.7466 17.5286 45.1436 18.0139 45.1436H26.8374C27.3227 45.1436 27.7197 44.7466 27.7197 44.2613V24.4084C27.7198 22.9525 26.5286 21.7613 25.0728 21.7613ZM25.9551 43.3789H18.8962V24.4084C18.8962 23.9231 19.2933 23.526 19.7785 23.526H25.0727C25.558 23.526 25.955 23.9231 25.955 24.4084V43.3789H25.9551Z" fill="black"/>
<path d="M40.0728 18.2319H34.7786C33.3228 18.2319 32.1316 19.4231 32.1316 20.8789V44.2613C32.1316 44.7466 32.5286 45.1436 33.0139 45.1436H41.8374C42.3227 45.1436 42.7197 44.7466 42.7197 44.2613V20.8789C42.7198 19.4231 41.5286 18.2319 40.0728 18.2319ZM40.9551 43.3789H33.8962V20.8789C33.8962 20.3936 34.2933 19.9966 34.7785 19.9966H40.0727C40.558 19.9966 40.955 20.3936 40.955 20.8789V43.3789H40.9551Z" fill="black"/>
<path d="M44.2554 5.13775C44.1495 4.82014 43.876 4.58187 43.5406 4.53775L39.8348 3.99952L38.1759 0.637754C38.0259 0.337792 37.7171 0.143646 37.3818 0.143646C37.0466 0.143646 36.7377 0.337792 36.5877 0.637754L34.9289 3.99952L31.223 4.53775C30.8877 4.58187 30.6142 4.82006 30.5083 5.13775C30.4024 5.45545 30.4906 5.80836 30.7289 6.04655L33.2613 8.51717L25.1789 12.0819C24.5436 11.2613 23.5466 10.7319 22.426 10.7319C20.4759 10.7319 18.8965 12.3113 18.8965 14.2613C18.8965 14.4554 18.9142 14.6495 18.9407 14.8348L10.1877 18.6907C9.54355 17.8789 8.54651 17.3495 7.42592 17.3495C5.47588 17.3495 3.89648 18.9289 3.89648 20.8789C3.89648 22.829 5.47588 24.4084 7.42592 24.4084C9.37596 24.4084 10.9554 22.829 10.9554 20.8789C10.9554 20.6848 10.9377 20.4907 10.9112 20.3054L19.6641 16.4495C20.3083 17.2613 21.3053 17.7907 22.4259 17.7907C24.3759 17.7907 25.9553 16.2113 25.9553 14.2613C25.9553 14.0672 25.9377 13.8731 25.9112 13.6878L33.1024 10.5113L32.7847 12.3466C32.7318 12.6819 32.8642 13.0084 33.1377 13.2113C33.4112 13.4055 33.773 13.4319 34.0641 13.2819L37.3817 11.5348L40.6994 13.2819C40.8317 13.3525 40.9729 13.379 41.1141 13.379C41.2994 13.379 41.4758 13.326 41.6346 13.2113C41.9082 13.0172 42.0405 12.6819 41.9876 12.3466L41.3522 8.64962L44.0346 6.03788C44.273 5.80836 44.3612 5.45545 44.2554 5.13775ZM7.42592 22.6436C6.45535 22.6436 5.6612 21.8495 5.6612 20.8789C5.6612 19.9084 6.45535 19.1142 7.42592 19.1142C8.39648 19.1142 9.19064 19.9084 9.19064 20.8789C9.19064 21.8495 8.39648 22.6436 7.42592 22.6436ZM22.4259 16.026C21.4553 16.026 20.6612 15.2319 20.6612 14.2613C20.6612 13.2907 21.4553 12.4966 22.4259 12.4966C23.3965 12.4966 24.1906 13.2907 24.1906 14.2613C24.1906 15.2319 23.3965 16.026 22.4259 16.026ZM39.7818 7.71427C39.57 7.91724 39.4818 8.20838 39.5258 8.4996L39.9317 10.8908L37.7876 9.76138C37.6552 9.69078 37.514 9.66431 37.3729 9.66431C37.2317 9.66431 37.0906 9.69961 36.9582 9.76138L34.8141 10.8908L35.1053 9.2055L35.2288 8.4996C35.2818 8.21729 35.1847 7.91724 34.9729 7.71427L33.2347 6.02015L35.6347 5.67607C35.9258 5.63194 36.1729 5.45545 36.2965 5.19078L37.3729 3.02021L38.4494 5.19078C38.5817 5.45553 38.8288 5.63194 39.1112 5.67607L41.5112 6.02015L39.7818 7.71427Z" fill="black"/>
</g>
<defs>
<clipPath id="clip0_15_169">
<rect width="45" height="45" fill="white" transform="translate(0.715576 0.143646)"/>
</clipPath>
</defs>
</svg>
