<svg width="32" height="32" viewBox="0 0 32 32" fill="none" xmlns="http://www.w3.org/2000/svg">
<path d="M25.1206 0H6.87793C5.49943 0 4.37793 1.1215 4.37793 2.5V29.5C4.37793 30.8785 5.49943 32 6.87793 32H25.1206C26.4991 32 27.6206 30.8785 27.6206 29.5V2.5C27.6206 1.1215 26.4991 0 25.1206 0ZM10.8109 20.681H21.1876C21.7054 20.681 22.1251 21.1007 22.1251 21.6185C22.1251 22.1362 21.7054 22.556 21.1876 22.556H10.8109C10.2931 22.556 9.87337 22.1362 9.87337 21.6185C9.87337 21.1007 10.2931 20.681 10.8109 20.681ZM9.87337 17.6608C9.87337 17.1431 10.2931 16.7233 10.8109 16.7233H21.1876C21.7054 16.7233 22.1251 17.1431 22.1251 17.6608C22.1251 18.1786 21.7054 18.5983 21.1876 18.5983H10.8109C10.2931 18.5983 9.87337 18.1786 9.87337 17.6608ZM22.0875 25.2159C22.0875 25.7337 21.6677 26.1534 21.15 26.1534H17.65C17.1322 26.1534 16.7125 25.7337 16.7125 25.2159C16.7125 24.6982 17.1322 24.2784 17.65 24.2784H21.15C21.6677 24.2784 22.0875 24.6982 22.0875 25.2159ZM21.1876 14.6407H10.8109C10.2931 14.6407 9.87337 14.221 9.87337 13.7032C9.87337 13.1855 10.2931 12.7657 10.8109 12.7657H21.1876C21.7054 12.7657 22.1251 13.1855 22.1251 13.7032C22.1251 14.221 21.7054 14.6407 21.1876 14.6407ZM9.87337 7.18331C9.87337 5.73056 11.0552 4.54869 12.508 4.54869C13.9607 4.54869 15.1427 5.73056 15.1427 7.18331C15.1427 8.63606 13.9607 9.81794 12.508 9.81794C11.0552 9.81794 9.87337 8.63606 9.87337 7.18331Z" fill="#54BD95"/>
<path d="M12.5077 7.94289C12.9265 7.94289 13.2674 7.60214 13.2674 7.18327C13.2674 6.76439 12.9265 6.42365 12.5077 6.42365C12.0888 6.42365 11.748 6.76439 11.748 7.18327C11.748 7.60214 12.0888 7.94289 12.5077 7.94289Z" fill="#54BD95"/>
</svg>
